<?xml version="1.0" encoding="UTF-8"?>
<svg id="Calque_1" data-name="Calque 1" xmlns="http://www.w3.org/2000/svg" viewBox="0 0 1246.88 1001.25">
  <defs>
    <style>
      .cls-1 {
        fill: #00203c;
      }

      .cls-1, .cls-2, .cls-3 {
        stroke-width: 0px;
      }

      .cls-2 {
        fill: #00203c;
      }

    </style>
  </defs>
  <g>
    <path class="cls-1" d="M791.67,567.76c.01,2.36,0,4.72,0,7.28,0-2.56,0-4.92,0-7.28Z"/>
    <path class="cls-1" d="M791.67,567.76c0,2.36,0,4.72,0,7.28h-86.52c-.08-.12-.15-.24-.23-.37.08-.05.15-.09.23-.13.15-.09.3-.18.45-.28.37-.23.75-.46,1.15-.63,7.42-3.19,14.87-6.32,22.26-9.54,13.05-5.69,26.05-11.45,39.09-17.16,4.59-2.01,9.18-4.03,13.84-5.92,2.18-.89,3.05-2.17,3.05-4.2-.04-15.67-.04-31.34.04-47.02.01-2.07.58-4.14.75-6.22.12-1.51.88-3.01.5-4.55-.04-.17-.1-.34-.17-.52-.04-.1-.08-.19-.13-.28-.1-.19-.23-.38-.38-.58-.49-.62-.31-1.8-.01-2.61.26-.7,1.15-1.78,1.7-1.75,1.06.05,2.36.57,3.04,1.26.63.65.79,1.78.8,2.69.06,3.39.09,6.78.12,10.17.03,3.39.04,6.78.06,10.17.13,23.4.25,46.8.37,70.19Z"/>
    <path class="cls-1" d="M791.55,583.6v11.48c-44.55,0-89,0-133.45-.03-.03,0-.06-.02-.09-.05-.02-.02-.04-.05-.07-.08-.02-.03-.04-.07-.07-.11-.11-.18-.22-.44-.35-.65,5.41-2.24,10.77-4.46,16.13-6.68.13-.05.32-.02.43-.09,6.35-3.77,13.54-3.81,20.92-3.78,31.21.11,62.41.01,93.62,0h2.93Z"/>
    <path class="cls-1" d="M786.27,479.02c-.04-.17-.1-.34-.17-.52.08.17.13.34.17.52Z"/>
    <path class="cls-1" d="M785.58,477.65c.15.19.28.38.38.58-.1-.19-.23-.38-.38-.58Z"/>
    <path class="cls-1" d="M480.45,604.48h298.21c-.47.43-.78.77-1.05,1.01-.17.15-.32.27-.5.36-.78.38-1.55.76-2.33,1.15-1.55.76-3.1,1.53-4.65,2.29-1.55.76-3.11,1.52-4.67,2.27-2.34,1.13-4.69,2.25-7.04,3.36-.19.09-.4.16-.61.23-.95.27-2.07.31-3.08.31-15.3,0-30.6,0-45.89,0-38.96,0-77.92-.01-116.88.03h-.13c-7.23,0-14.46.03-21.69.05-10.96.04-21.93.1-32.89.15-7.21.03-14.41.06-21.61.09-3.67.01-7.33.02-11,.03-1.27,0-2.63-.21-3.88-.59-.57-.17-1.11-.38-1.61-.63-.8-.39-1.6-.78-2.4-1.17-5.58-2.75-11.06-5.64-16.59-8.47.1-.16.2-.31.3-.47Z"/>
    <path class="cls-1" d="M778.68,420.88c-5.3,1.86-10.15,3.86-13.49,7.22-1.12,1.12-2.06,2.39-2.8,3.85-.21.42-.41.85-.58,1.31s-.33.92-.48,1.41c-4.36-6.52-10.48-11.2-19.58-13.59,8.29-3.2,15.7-6.28,18.75-14.2,3.42,7.29,9.27,11.75,18.18,14.01Z"/>
    <path class="cls-1" d="M772.41,448.9c2.58,1.39,3.6,2.74-.77,5.09-1.43-2.54-1.17-4.24.77-5.09Z"/>
    <path class="cls-1" d="M770.44,499.27c.29.26.59.53.92.8-1.85,1.32-3.41,3.18-4.41,2.99-.62-.12-1.23-.5-1.79-1.01-.39-.36-.76-.79-1.07-1.22l-.18-.26c-.12-.17-.23-.35-.33-.52-.05-.08-.1-.17-.14-.25-.18-.33.07-.87.51-1.42.1-.13.21-.26.34-.38.16-.17.34-.33.52-.49.09-.08.18-.16.28-.23.75-.58,1.53-.96,1.92-.75.75.39,1.42.92,2.1,1.53l.26.23c.35.31.71.64,1.09.99Z"/>
    <path class="cls-1" d="M765.19,428.1c-1.11,1.12-2.06,2.39-2.8,3.85.74-1.47,1.68-2.74,2.8-3.85Z"/>
    <path class="cls-1" d="M762.39,431.95c-.21.42-.4.85-.58,1.31.17-.45.37-.89.58-1.31Z"/>
    <path class="cls-1" d="M754.04,374.97c1.15.94.44,2.11-2.12,3.99-3.01-2.45-3.01-3.18-.12-5.05.58.19,1.06.37,1.46.57.32.16.58.32.78.48Z"/>
    <path class="cls-1" d="M752.89,540.06c.02,1.36-.3,2.34-1.12,3.05.82-.72,1.14-1.7,1.12-3.05-.26-15.38-.32-30.76-.56-46.15,0-.26-.02-.52-.04-.78.03.26.04.52.05.78.24,15.38.3,30.77.56,46.15Z"/>
    <path class="cls-1" d="M752.88,540.06c.02,1.35-.3,2.33-1.12,3.05-.48.42-1.12.74-1.96,1-1.04.31-1.98.84-3.19,1.37-.02-.31-.05-.61-.08-.91-.02-.3-.04-.59-.04-.89,0-1.46,0-2.93,0-4.39,0-6.43,0-12.85.05-19.26.01-1.13.02-2.25.03-3.38.01-.98.02-1.96.03-2.94.03-1.96.06-3.92.09-5.88.07-3.92.17-7.84.31-11.76.04-.98.08-1.96.12-2.94,0-.14.02-.27.03-.42.18-2.07,1.02-4.12,1.5-6.05,1.03-.24,1.72-.23,2.13.13.23.2.37.51.43.94.12.78.31,1.55.49,2.32s.36,1.55.48,2.32c.04.26.07.52.1.77.02.26.04.52.04.78.24,15.39.3,30.77.56,46.15Z"/>
    <path class="cls-1" d="M752.19,492.36c.04.26.07.52.1.77-.03-.26-.06-.51-.1-.77Z"/>
    <path class="cls-1" d="M751.23,487.72c.12.78.3,1.55.48,2.32-.18-.77-.36-1.55-.49-2.32-.07-.43-.21-.74-.43-.94.23.2.37.5.44.94Z"/>
    <path class="cls-1" d="M746.08,393.84c3.03,1.83,3.08,3.04.2,4.59-2.45-1.64-2.92-2.32-1.47-3.6.06-.05.11-.1.17-.15.12-.1.25-.2.39-.31.21-.16.44-.34.71-.52Z"/>
    <path class="cls-1" d="M739.85,463.36c.22.14.45.26.69.34-.27.13-.52.31-.76.52-.51.43-.96.98-1.47,1.35-.05.04-.11.08-.16.11-.48.29-1.01.42-1.69.17-.25-.1-.52-.24-.82-.44-.24-.16-.45-.35-.61-.55-.11-.14-.2-.27-.27-.42-.29-.61-.21-1.28.44-1.87.06-.05.12-.11.19-.16,1.48-1.12,2.45-.56,3.4.17.35.27.69.56,1.06.79Z"/>
    <path class="cls-1" d="M739.19,625.26c-1.23.7-2.45,1.43-3.68,2.14-.74.42-1.49.83-2.25,1.22-4.48,2.29-8.89,4.71-13.57,6.65-.28.12-.57.22-.86.32-.15.05-.3.1-.46.14-.3.09-.61.17-.92.24-.32.07-.64.14-.96.19-.49.09-.97.15-1.46.21-.99.11-1.98.15-2.94.15-55.95.07-111.88.05-167.82.02-1.29,0-2.74-.21-3.87-.72-4.89-2.21-9.75-4.47-14.68-6.76-1.52-.71-3.06-1.42-4.6-2.14-.93-.43-1.86-.86-2.8-1.3.01,0,.04-.02.08-.03,0,0,0,0,0,0,.12-.02.35-.05.68-.07.07,0,.14-.01.22-.01,1.13-.07,3.19-.14,6.04-.21.39-.01.79-.02,1.2-.03.81-.01,1.68-.03,2.6-.05h.72c.47-.02.95-.03,1.45-.04.26,0,.52,0,.78-.01.51,0,1.03-.01,1.56-.02.28,0,.55,0,.83-.01.55,0,1.1-.01,1.67-.02h.02c.57,0,1.15-.01,1.73-.02h.03c.59,0,1.19-.01,1.8-.02h.03c.61,0,1.23-.01,1.87-.02h.02c.63,0,1.28-.01,1.93-.02.34,0,.69,0,1.03,0,.66,0,1.33-.01,2.02-.02.35,0,.72,0,1.07,0,.69,0,1.4-.01,2.11-.02.73,0,1.47-.01,2.22-.02,1.1,0,2.21-.02,3.36-.03,36.28-.31,91.85-.44,132.45-.32,1.72,0,3.42.01,5.08.02h.17c1.09,0,2.17,0,3.24.01.61,0,1.22,0,1.83,0,1.05,0,2.09,0,3.12.01,5.14.03,9.91.06,14.21.1.42,0,.83,0,1.24.01.25,0,.5,0,.75,0,.4,0,.81,0,1.2.01h.08c.4,0,.79,0,1.18.01.23,0,.46,0,.69,0,.38,0,.76,0,1.14.01h.08c.97.01,1.9.03,2.8.04h.05c.53,0,1.05.01,1.56.02h.06c.51,0,1,.02,1.48.02h.05c.65.01,1.27.02,1.87.03.16,0,.33,0,.49,0,2.07.04,3.84.08,5.25.13.12,0,.24,0,.35,0,.38.01.73.03,1.05.04.09,0,.18,0,.27,0,.14,0,.28.01.41.02.09,0,.17,0,.25,0,.13,0,.25.01.36.02h.03c.11,0,.21.01.31.02.32.02.57.05.74.07Z"/>
    <path class="cls-1" d="M738.79,462.57c.35.26.7.55,1.06.79-.37-.23-.71-.52-1.06-.79Z"/>
    <path class="cls-1" d="M738.45,625.19c-.1,0-.2-.01-.31-.02.11,0,.21.01.31.02Z"/>
    <path class="cls-1" d="M738.12,625.17c-.11,0-.23-.01-.36-.02.12,0,.25.01.36.02Z"/>
    <path class="cls-1" d="M737.51,625.13c-.13,0-.27-.01-.41-.02.14,0,.28.01.41.02Z"/>
    <path class="cls-1" d="M736.94,517.33h0c-.79.59-1.45,1.11-1.96,1.56-.17.14-.32.28-.46.42h0c-.2.2-.37.38-.5.55,0,0,0,0,0,0-.09.11-.16.21-.21.3-.1.17-.13.31-.11.42h-2.48s.05-.06.07-.1c.48-.75.12-1.88-.57-2.48-.14-.12-.29-.22-.46-.29h0c-.21-.09-.46-.13-.7-.1-.18.03-.37.08-.55.14-.09.03-.19.06-.29.1-.49.18-1.03.44-1.79.73.05-.06.09-.12.14-.18.33-.42.59-.76.83-1.06.13-.17.26-.32.37-.47.11-.15.23-.29.34-.43.07.15.13.3.2.45,1.59-.41,3.18-.82,5.06-1.3-.09-.11-.17-.22-.26-.32-.16-.21-.31-.39-.46-.57-.07-.09-.14-.17-.2-.26-.17-.21-.33-.41-.48-.6-.08-.11-.16-.21-.25-.31.06-.05.11-.09.17-.13.06-.04.11-.08.17-.13,1.46,1.35,2.92,2.7,4.38,4.05Z"/>
    <path class="cls-1" d="M736.82,625.1c-.32-.01-.67-.03-1.05-.04.38.01.73.03,1.05.04Z"/>
    <path class="cls-1" d="M733.15,514.7c.14.17.29.36.46.57-.16-.21-.32-.39-.46-.57Z"/>
    <path class="cls-1" d="M732.46,513.85c.15.19.31.39.48.6-.17-.21-.33-.41-.48-.6Z"/>
    <path class="cls-1" d="M732.56,513.27h0c-.06.05-.11.09-.17.13.06-.05.11-.09.17-.13Z"/>
    <path class="cls-1" d="M732.39,513.4c-.06.05-.11.09-.17.13h0c.06-.05.11-.09.17-.13Z"/>
    <path class="cls-1" d="M731.28,520.49s-.05.06-.07.1h0s.05-.06.07-.1Z"/>
    <path class="cls-1" d="M735.42,625.05c-1.41-.05-3.18-.09-5.25-.13,2.08.04,3.84.08,5.25.13Z"/>
    <path class="cls-1" d="M729.96,430.37c2.78,2.53,2.73,3.07-.29,4.55-2.39-1.6-2.38-2.12.29-4.55Z"/>
    <path class="cls-1" d="M729.68,624.91c-.6,0-1.22-.02-1.87-.03.64,0,1.27.02,1.87.03Z"/>
    <path class="cls-1" d="M727.89,517.35c.13-.17.26-.32.37-.47-.12.15-.24.3-.37.47Z"/>
    <path class="cls-1" d="M727.06,518.4c-.05.06-.09.12-.14.18h0c.05-.06.1-.12.14-.18Z"/>
    <path class="cls-1" d="M727.76,624.88c-.48,0-.97-.01-1.48-.02.51,0,1,.01,1.48.02Z"/>
    <path class="cls-1" d="M726.22,624.86c-.51,0-1.03-.01-1.56-.02.53,0,1.05.01,1.56.02Z"/>
    <path class="cls-1" d="M724.62,624.84c-.9,0-1.84-.02-2.8-.04.97,0,1.9.02,2.8.04Z"/>
    <path class="cls-1" d="M721.74,624.8c-.37,0-.75,0-1.14-.01.38,0,.76,0,1.14.01Z"/>
    <path class="cls-1" d="M719.92,624.78c-.39,0-.78,0-1.18-.01.4,0,.79,0,1.18.01Z"/>
    <path class="cls-1" d="M718.67,624.77c-.39,0-.8,0-1.2-.01.4,0,.81,0,1.2.01Z"/>
    <path class="cls-1" d="M717.58,553.34c.05.89-.02,1.69-.2,2.41-.05.16-.09.32-.15.47-.03.08-.06.15-.09.22-.06.15-.13.29-.2.43-.08.14-.16.27-.25.41-.09.13-.18.25-.28.37-.15.18-.32.36-.51.52-.03.03-.07.06-.1.09-.09.08-.19.16-.3.23-.34.25-.73.48-1.17.68t0,0c-.27.12-.54.23-.84.33,0,0,0,0,0,0-.3.1-.62.19-.95.28-.24.06-.47.13-.73.22-.08.03-.17.06-.27.1-.14.05-.29.11-.45.16-.27.1-.58.21-.94.33.98-42.41-1.27-84.45,1.51-126.85.65.31,1.23.56,1.75.79.53.23,1,.45,1.43.67.29.15.56.31.81.47.04.03.09.06.13.1.17.16.31.39.4.63.09.23.13.47.1.66,0,.05-.02.11-.04.15h0c-.17.38-.33.76-.47,1.14-.2.57-.36,1.13-.47,1.69-.25,1.32-.22,2.63.14,3.93.2.74.52,1.49.95,2.24.19.33.19.75.21,1.12.15,4.01.4,8.02.41,12.03.05,24.56.01,49.12.08,73.68,0,1.69.02,3.38.03,5.07.04,4.22.14,8.44.32,12.66.04.84.08,1.69.12,2.53Z"/>
    <path class="cls-1" d="M717.38,555.75c-.04.16-.09.32-.15.47.06-.15.1-.31.15-.47Z"/>
    <path class="cls-1" d="M717.14,538.14c.05,4.22.14,8.45.32,12.66-.18-4.22-.28-8.44-.32-12.66Z"/>
    <path class="cls-1" d="M716.39,362.91c.48.65.71,1.49.69,2.52,0,.16-.02.32-.04.47-.04.33-.11.65-.23.94-.03.08-.06.16-.1.23-.06.12-.12.23-.19.34-.07.11-.15.22-.23.32-.12.15-.26.29-.41.42-.06.05-.11.1-.17.14-.21.16-.44.3-.69.43,0,0,0,0,0,0-.26.13-.55.23-.85.32-.15.04-.31.08-.48.11-.15.03-.32.06-.49.08-.06,0-.12.01-.17.02-.35.04-.73.05-1.13.05-2.84-.05-5.13-1.87-5.19-4.13,0-.3.03-.59.11-.86.04-.13.08-.25.13-.37.04-.08.07-.16.12-.24.05-.1.11-.2.17-.29.11-.17.24-.33.39-.48.05-.05.1-.1.15-.15.16-.16.34-.3.53-.43.11-.08.23-.16.35-.23.07-.04.14-.07.21-.11.2-.11.42-.21.65-.29.08-.03.16-.06.25-.09.08-.02.16-.05.24-.07.25-.07.5-.13.77-.17.48-.09.98-.13,1.51-.12,1.57.02,2.77.39,3.58,1.07.2.17.38.36.53.58Z"/>
    <path class="cls-1" d="M717.15,556.44c-.06.15-.13.29-.2.43.07-.14.14-.28.2-.43Z"/>
    <path class="cls-1" d="M716.7,557.27c-.09.13-.18.26-.28.37.1-.12.19-.25.28-.37Z"/>
    <path class="cls-1" d="M716.19,436.42c.09.23.13.47.1.66.03-.19-.01-.43-.1-.66Z"/>
    <path class="cls-1" d="M716.72,624.75c-.41,0-.82,0-1.24-.01.42,0,.83,0,1.24.01Z"/>
    <path class="cls-1" d="M715.67,435.69s.09.06.13.11c-.04-.04-.09-.07-.13-.1-.26-.17-.53-.32-.81-.47.29.15.56.3.81.47Z"/>
    <path class="cls-1" d="M713.03,369.25c.06,0,.12-.01.17-.02-.06,0-.11.01-.17.02Z"/>
    <path class="cls-1" d="M711.67,433.76c.65.3,1.23.56,1.75.79-.52-.23-1.1-.48-1.75-.79h0Z"/>
    <path class="cls-1" d="M708.81,615.47c-38.96,0-77.92-.01-116.88.03,38.96-.04,77.92-.03,116.88-.03Z"/>
    <path class="cls-1" d="M706.56,391.11c.88.64,1.49,1.53,1.46,2.39-.04,1.32-2.57,3.76-3.91,3.78-1.09,0-3.5-2.96-3.48-4.28.03-1.56,1.48-2.82,3.25-2.81.06,0,.13,0,.19,0,.13,0,.26.02.38.04.19.03.38.07.57.12.43.12.85.32,1.23.55.11.07.21.14.31.21Z"/>
    <path class="cls-1" d="M706.25,390.9c.11.06.21.14.31.21-.1-.07-.2-.14-.31-.21Z"/>
    <path class="cls-1" d="M705.15,574.54c.15-.09.3-.19.45-.28-.15.1-.3.19-.45.28Z"/>
    <path class="cls-1" d="M705.02,390.35c.43.12.85.31,1.23.55-.38-.23-.8-.42-1.23-.55Z"/>
    <path class="cls-1" d="M704.07,390.19c.13,0,.26.02.38.04-.12-.02-.25-.03-.38-.04Z"/>
    <path class="cls-1" d="M699.79,646.07h0c-.16-.04-.32-.1-.49-.16.16.05.33.11.49.16Z"/>
    <path class="cls-1" d="M699.79,646.08c-.06.05-.12.11-.17.16-.11.11-.22.23-.33.35-.28.3-.56.58-.92.75-6.68,3.26-13.4,6.49-20.13,9.67-.35.16-.74.3-1.14.4-.59.16-1.22.24-1.82.24-7.61,0-15.22.01-22.83.02-15.24,0-30.49,0-45.73,0-7.61,0-15.22,0-22.83.01-3.66,0-6.43-1.74-9.37-3.12-.09-.05-.19-.09-.28-.14-2.86-1.32-5.7-2.67-8.6-4.06-2.18-1.05-4.4-2.12-6.7-3.22-.76-.37-1.53-.74-2.31-1.11.08-.01.16-.03.24-.04l.25-.04c.38-.07.73-.14,1.05-.2.61-.12,1.14-.21,1.66-.21h0c45.99-.02,91.99-.02,137.99,0,.49,0,.98.19,1.47.36h0c.16.06.32.11.49.16Z"/>
    <path class="cls-1" d="M701.26,624.64c-1.03,0-2.07,0-3.12-.01,1.05,0,2.09,0,3.12.01Z"/>
    <path class="cls-1" d="M699.61,646.24c-.11.11-.22.23-.33.35.11-.11.21-.23.33-.35Z"/>
    <path class="cls-1" d="M697.83,645.56c.49,0,.98.19,1.47.36-.49-.17-.98-.36-1.47-.36-46-.02-91.99-.02-137.99,0,46-.02,91.99-.02,137.99,0Z"/>
    <path class="cls-1" d="M696.31,624.62c-1.07,0-2.15,0-3.24-.01,1.09,0,2.17,0,3.24.01Z"/>
    <path class="cls-1" d="M693.89,561.67c.01,1.42-.1,2.62-.38,3.64.28-1.02.39-2.21.38-3.64-.09-13.36-.3-26.73-.32-40.08-.06-25.28-.02-50.56-.02-75.84v-2.35h0v2.35c0,25.28-.04,50.56.02,75.84.03,13.36.23,26.72.32,40.08Z"/>
    <path class="cls-1" d="M693.88,561.67c.01,1.42-.1,2.62-.38,3.64-.03.12-.07.25-.11.37-.27.82-.66,1.52-1.19,2.14,0,0,0,0,0,0-.16.17-.32.34-.49.51-.35.33-.76.63-1.21.93-.23.14-.47.28-.73.42s-.53.27-.81.4-.58.26-.9.38c-.63.25-1.32.49-2.08.74-3.2,1.02-6.28,2.32-9.58,3.55h0v-123.86h-93.69v124.82c-3.9-1.68-7.42-3.17-10.91-4.69-.4-.17-.79-.36-1.19-.54-.58-.28-1.17-.57-1.75-.84h0c-.39-.18-.79-.36-1.19-.51-.2-.08-.4-.16-.61-.22-.57-.19-.98-.43-1.28-.71-.67-.62-.78-1.46-.78-2.47.05-13.89.02-27.78.03-41.66.01-26.11.03-52.22.04-78.33v-2.22h8.04v-6.85h7.18c.21-3.06.4-5.9.61-8.91h35.39v-8.09h6.58c0-3.27-.13-6.35.05-9.43.02-.35.09-.67.19-.96.05-.12.09-.24.14-.35.08-.17.18-.33.28-.48.18-.26.39-.49.62-.71.05-.04.09-.09.14-.13.29-.26.62-.49.98-.7.24-.14.48-.27.73-.4h0c.26-.13.52-.25.78-.37.14-.05.27-.11.41-.17.18-.08.37-.14.55-.2.11-.03.22-.06.33-.08.82-.18,1.59-.12,2.31.11.14.05.29.1.43.15.07.02.15.05.22.09.14.06.28.13.42.2.07.03.14.07.21.11.14.08.27.16.41.24.14.08.28.17.42.26.62.41,1.17.84,1.63,1.3.46.46.83.96,1.09,1.5,0,0,0,0,0,0,.38.79.55,1.68.47,2.71-.18,2.32.25,4.68.42,7.26h5.62c.26,2.75.5,5.27.75,8.02h35.57v8.82h6.84v6.95h8.65v2.35c0,25.28-.04,50.56.02,75.84.03,13.36.23,26.72.32,40.08Z"/>
    <path class="cls-1" d="M692.21,567.82c.53-.62.92-1.32,1.19-2.14-.27.82-.65,1.52-1.19,2.14Z"/>
    <path class="cls-1" d="M692.21,567.83c-.15.17-.31.35-.49.51.17-.16.33-.33.49-.51Z"/>
    <path class="cls-1" d="M690.51,569.26c.46-.29.86-.6,1.21-.93-.35.33-.75.64-1.21.93Z"/>
    <path class="cls-1" d="M689.78,569.68c.26-.14.5-.28.73-.42-.23.15-.47.28-.73.42Z"/>
    <path class="cls-1" d="M692.9,624.6c-1.67,0-3.36,0-5.08-.02,1.72,0,3.42,0,5.08.02Z"/>
    <path class="cls-1" d="M688.97,570.08c-.29.13-.58.26-.9.38.31-.13.61-.26.9-.38Z"/>
    <path class="cls-1" d="M689.15,417.59c-1.76.95-2.69,3.26-5.14,1.18-.12-.1-.21-.19-.3-.29s-.15-.19-.2-.27c-.28-.48-.14-.9.19-1.29,0,0,0,0,0,0,.09-.1.18-.19.29-.28.05-.05.11-.09.16-.14,2.12-1.7,3.26.2,4.99,1.1Z"/>
    <rect class="cls-1" x="684.89" y="436.45" width="0" height="6.95"/>
    <path class="cls-1" d="M682.7,376.23c2.72,3.09,2.66,3.39-.76,4.78-1.46-1.15-1.21-2.74.76-4.78Z"/>
    <rect class="cls-1" x="678.05" y="427.62" width="0" height="8.82"/>
    <path class="cls-1" d="M673.03,397.14c-2.41-.34-6.87,2.03-7.48,3.78-1.75-1.23-3.45-2.43-5.42-3.82,2.16-1.45,4.24-2.84,6.5-4.35,2.06,1.41,4.08,2.8,6.4,4.4Z"/>
    <path class="cls-1" d="M671.35,362.25c.44.48.49.89.13,1.39l-.11.14c-.08.1-.17.19-.27.29-.41.41-1.03.88-1.85,1.49-2.81-2-2.81-2.06-.18-4.95.88.56,1.55.99,1.99,1.37.11.1.2.19.29.27Z"/>
    <path class="cls-1" d="M664.26,480.13c0,3.69.11,7.28-.04,10.87-.02.34-.08.63-.18.89-.07.17-.16.32-.27.46,0,0,0,0,0,0-.06.07-.11.13-.17.19-.06.06-.13.12-.19.17-.14.11-.29.19-.45.27h0c-.69.32-1.61.41-2.57.36-.12,0-.24-.01-.36-.02h0c-.24-.02-.48-.05-.72-.09-.6-.08-1.2-.19-1.81-.23-3.72-.28-5.58-2.02-5.58-5.21v-7.66h0s12.35,0,12.35,0Z"/>
    <rect class="cls-1" x="652.17" y="464.23" width="11.81" height="12.88"/>
    <path class="cls-1" d="M664.03,491.88c-.07.17-.16.32-.27.46.1-.14.19-.29.27-.46Z"/>
    <path class="cls-1" d="M663.59,492.54c.06-.06.12-.12.17-.19-.05.07-.11.14-.17.19Z"/>
    <path class="cls-1" d="M663.4,492.71c-.14.11-.29.2-.45.27.16-.08.31-.17.45-.27Z"/>
    <path class="cls-1" d="M661.49,666.63c.1.13.19.26.29.39-1.94,1.05-3.86,2.12-5.81,3.16-.65.34-1.3.69-1.96,1.02-7.13,3.62-14.29,7.2-21.44,10.78-.38.19-.76.36-1.14.48h0c-.37.13-.75.22-1.12.27-.83.12-1.68.05-2.58-.26-.32-.11-.66-.25-1-.42-8.72-4.45-17.56-8.71-26.35-13.06-1.13-.56-2.18-1.25-3.27-1.88.09-.16.19-.32.28-.48h0s64.1,0,64.1,0Z"/>
    <path class="cls-1" d="M660.37,493.34c.97.05,1.88-.04,2.57-.36-.7.32-1.61.42-2.57.37-.12,0-.24-.01-.36-.03.12,0,.24.02.36.02Z"/>
    <path class="cls-1" d="M659.29,493.23c.24.03.48.06.72.09-.24-.02-.48-.05-.72-.09Z"/>
    <path class="cls-1" d="M657.94,594.92s.05.06.07.08c-.03-.02-.05-.05-.07-.08Z"/>
    <path class="cls-1" d="M657.87,594.81s.05.08.07.11c-.02-.03-.05-.07-.07-.11Z"/>
    <path class="cls-1" d="M654.01,671.2c.66-.33,1.31-.68,1.96-1.02-.65.35-1.3.69-1.96,1.02-7.13,3.62-14.29,7.19-21.44,10.78-.38.19-.76.35-1.14.48.37-.13.75-.29,1.14-.48,7.15-3.59,14.31-7.16,21.44-10.78Z"/>
    <path class="cls-1" d="M654.44,345.19c-.07.04-.14.08-.2.12-.14.09-.27.18-.39.28-.06.05-.13.1-.19.15s-.12.11-.18.16c-.18.16-.36.31-.54.46-.12.1-.24.19-.36.28-.59.41-1.21.63-2.04.21-.19-.1-.39-.22-.6-.39-.5-.38-.5-1.9-.02-2.39,1.94-1.97,2.99,0,4.53,1.11Z"/>
    <path class="cls-1" d="M648.73,480c0,3.82.12,7.56-.12,11.28,0,.11-.07.24-.17.37-.07.09-.15.17-.25.26-.05.05-.1.09-.15.13h0c-.54.42-1.37.81-1.94.85-3.06.2-6.16.08-9.41.08v-12.97h12.04Z"/>
    <rect class="cls-1" x="636.69" y="480" width="12.04" height="0"/>
    <rect class="cls-1" x="637.03" y="464.33" width="11.6" height="12.66"/>
    <path class="cls-1" d="M641.34,368.13c3.13,4.22,2,8.9-1.64,12.06-.28.24-.56.47-.86.69-.3.22-.61.43-.94.63-.11.06-.22.13-.33.2-.11.06-.23.12-.34.19-.15.08-.3.16-.45.24-.2.1-.4.2-.61.29-.87.39-1.77.69-2.68.92-.46.11-.91.2-1.37.27-.05,0-.1.02-.15.02-.3.05-.61.08-.91.11-2.14.19-4.28-.04-6.26-.66-.34-.11-.67-.22-1-.35-.65-.26-1.28-.56-1.88-.9-.45-.26-.88-.54-1.3-.85-.27-.21-.54-.42-.79-.64-1.54-1.35-2.72-3.08-3.36-5.13-.03-.09-.05-.18-.08-.27-.09-.37-.15-.75-.2-1.13-.04-.28-.08-.57-.13-.86-.23-2.2,1.18-4.79,3.47-6.8.59-.52,1.24-1,1.94-1.43.14-.09.28-.17.42-.25.28-.16.58-.32.87-.46.15-.07.3-.14.45-.21.31-.13.61-.25.93-.36.47-.16.96-.3,1.45-.41.37-.08.75-.15,1.12-.21,4.89-.77,9.41.37,12.65,3.19.2.18.4.37.6.56.19.19.39.39.57.6.18.21.36.42.54.63.09.11.17.22.26.33Z"/>
    <path class="cls-1" d="M642.49,427.62h0c-.26-2.76-.49-5.27-.75-8.02h0c.26,2.75.5,5.27.75,8.02Z"/>
    <path class="cls-1" d="M640.54,367.17c.19.21.37.42.54.63-.17-.22-.35-.43-.54-.63Z"/>
    <path class="cls-1" d="M639.37,366.01c.2.18.41.36.6.56-.2-.19-.4-.38-.6-.56Z"/>
    <path class="cls-1" d="M636.12,419.6h0c-.18-2.58-.6-4.93-.42-7.26.08-1.04-.09-1.93-.47-2.71.38.79.56,1.67.48,2.71-.18,2.32.25,4.68.42,7.26Z"/>
    <path class="cls-1" d="M634.12,408.12c.46.46.83.95,1.09,1.5-.27-.54-.63-1.04-1.09-1.5Z"/>
    <path class="cls-1" d="M633.25,339.64c.24.31.26.64.07,1.07.19-.42.17-.75-.07-1.07Z"/>
    <path class="cls-1" d="M633.25,339.64c.24.32.26.65.07,1.07-.13.28-.36.61-.69,1s-.75.84-1.27,1.38c-1.75-1.89-1.72-3.43.08-4.65.25.13.48.24.68.36.14.08.26.15.38.22.17.11.32.21.44.32.04.04.08.07.12.11.08.07.14.14.19.21Z"/>
    <path class="cls-1" d="M632.95,339.33s.09.07.12.11c-.04-.04-.08-.07-.12-.11Z"/>
    <path class="cls-1" d="M633.32,340.71c-.13.28-.36.61-.69,1,.33-.39.55-.72.69-1Z"/>
    <path class="cls-1" d="M632.5,339.02c.17.11.32.21.44.32-.13-.1-.28-.21-.44-.32Z"/>
    <path class="cls-1" d="M632.12,338.8c.14.08.26.15.38.22-.12-.07-.24-.14-.38-.22Z"/>
    <path class="cls-1" d="M631.66,406.32c.14.08.28.16.41.24-.14-.08-.27-.16-.41-.24Z"/>
    <path class="cls-1" d="M631.02,406.01c.14.06.28.13.42.2-.14-.07-.28-.14-.42-.2Z"/>
    <path class="cls-1" d="M631.43,682.46c-.37.13-.75.22-1.12.27.37-.05.75-.15,1.12-.27Z"/>
    <path class="cls-1" d="M630.37,405.77c.15.04.29.09.43.15-.14-.05-.29-.11-.43-.15Z"/>
    <path class="cls-1" d="M626.72,362.82c4.89-.78,9.41.36,12.65,3.19-3.24-2.82-7.75-3.95-12.65-3.19Z"/>
    <path class="cls-1" d="M627.74,405.75c.11-.03.22-.06.33-.08-.11.02-.21.05-.33.08Z"/>
    <path class="cls-1" d="M626.73,682.05c.34.18.68.32,1,.42-.33-.11-.66-.25-1-.42-8.72-4.44-17.56-8.71-26.35-13.06-1.13-.56-2.18-1.25-3.27-1.88h0c1.09.63,2.14,1.31,3.27,1.87,8.78,4.35,17.63,8.61,26.35,13.06Z"/>
    <path class="cls-1" d="M623.22,363.8c.31-.13.61-.25.93-.36-.32.11-.62.23-.93.36Z"/>
    <path class="cls-1" d="M621.9,364.46c.28-.16.58-.32.87-.46-.3.14-.59.3-.87.46Z"/>
    <rect class="cls-1" x="610.43" y="464.29" width="11.51" height="12.87"/>
    <path class="cls-1" d="M621.91,480.13v12.84c-3.35,0-6.64.15-9.9-.11-.05,0-.1-.01-.15-.03-.32-.08-.69-.32-1.01-.63-.49-.47-.89-1.09-.92-1.54-.23-3.43-.1-6.89-.1-10.54h12.09Z"/>
    <path class="cls-1" d="M621.47,364.71c-.7.43-1.35.91-1.94,1.43.59-.53,1.24-1.01,1.94-1.43Z"/>
    <path class="cls-1" d="M610.85,492.2c.33.31.69.55,1.01.63-.32-.08-.69-.32-1.01-.63Z"/>
    <path class="cls-1" d="M606.67,490.55c.01.77-.27,1.35-.74,1.74-.06.05-.12.1-.18.14-.13.09-.26.16-.41.22-.36.16-.79.25-1.24.27-3.11.16-6.26.05-9.52.05v-12.94h12.08c0,3.64-.03,7.08.02,10.52Z"/>
    <rect class="cls-1" x="594.63" y="464.26" width="11.55" height="12.74"/>
    <path class="cls-1" d="M605.75,492.43c.06-.04.12-.09.18-.14-.06.05-.12.1-.18.14Z"/>
    <path class="cls-1" d="M605.34,492.65c.15-.06.28-.14.41-.22-.13.09-.26.16-.41.22Z"/>
    <path class="cls-1" d="M600.13,594.77h-132.69v-11.05c.46-.02.93-.05,1.4-.07t0,0c.47-.02.94-.04,1.42-.04,34.3.02,68.6.04,102.91.08,1.1,0,2.33.05,3.27.45h0c5.65,2.47,11.26,4.98,16.87,7.49,1.87.84,3.74,1.68,5.62,2.51.06.03.12.05.18.09.06.03.13.07.22.11.18.1.42.22.79.42h0Z"/>
    <path class="cls-1" d="M599.11,594.24c.07.03.13.06.22.11-.09-.04-.16-.08-.22-.11Z"/>
    <path class="cls-1" d="M594.5,395.86c2.5-.09,4.7,1.79,4.63,3.75-.02.65-.22,1.26-.56,1.77-.04.05-.07.11-.11.16-.11.15-.23.29-.36.42-.45.45-1.03.8-1.69,1.02-.53.18-1.13.28-1.75.28h0c-.47,0-.9-.03-1.31-.11-2.12-.38-3.4-1.74-3.43-3.71,0-.54.07-1.03.24-1.47.16-.42.42-.78.78-1.08.05-.04.09-.08.14-.11.34-.26.76-.46,1.28-.62.59-.18,1.3-.28,2.14-.32Z"/>
    <path class="cls-1" d="M596.46,358.82c.07.19.11.36.1.52-.02.52-.41,1.1-.98,1.59-.04.03-.08.07-.12.1-.08.07-.16.13-.25.2-.68.47-1.51.81-2.23.8-.94,0-1.89-.41-2.58-1-.6-.53-1-1.18-.99-1.83,0-.17.04-.35.1-.53.07-.19.15-.37.27-.56.09-.14.18-.28.29-.42.18-.23.39-.45.61-.66.73-.67,1.65-1.16,2.39-1.15.24,0,.53.1.83.25.08.04.15.08.23.13.29.17.58.39.86.64.05.04.1.08.14.13.05.04.09.09.14.13.09.09.17.18.26.27.04.05.09.09.13.14.08.09.15.18.23.28.07.09.14.19.2.28.1.15.18.28.25.42.05.09.08.18.11.26Z"/>
    <path class="cls-1" d="M594.66,403.27c.63,0,1.22-.11,1.75-.28-.54.19-1.13.28-1.76.29h0s0,0,0,0Z"/>
    <path class="cls-1" d="M593.9,356.14c.08.04.15.08.23.13-.08-.05-.15-.09-.23-.13Z"/>
    <path class="cls-1" d="M590.68,357.03c-.23.21-.43.43-.61.66.18-.23.38-.45.61-.66Z"/>
    <path class="cls-1" d="M589.92,399.45c.03,1.96,1.31,3.33,3.43,3.71-2.12-.37-3.41-1.74-3.43-3.7,0-.54.07-1.04.25-1.48-.17.44-.25.93-.24,1.47Z"/>
    <path class="cls-1" d="M590.07,357.69c-.11.14-.2.28-.29.42.08-.14.18-.28.29-.42Z"/>
    <path class="cls-1" d="M589.78,358.11c-.11.19-.2.37-.27.56.06-.19.15-.37.27-.56Z"/>
    <path class="cls-1" d="M589.51,358.67c-.06.18-.1.36-.1.53,0,.65.39,1.31.99,1.83-.61-.52-1-1.18-1-1.83,0-.17.04-.35.1-.53Z"/>
    <path class="cls-1" d="M576.44,584.15c5.65,2.46,11.26,4.97,16.87,7.49-5.61-2.52-11.22-5.03-16.87-7.49Z"/>
    <path class="cls-1" d="M570.12,615.55c7.23-.03,14.46-.05,21.69-.05-7.23,0-14.45.03-21.69.05Z"/>
    <path class="cls-1" d="M574.6,412.52c.7.93-.05,1.88-2.37,3.68-.49-.47-.9-.87-1.23-1.23-.2-.21-.37-.41-.52-.59-.1-.12-.18-.23-.26-.34-.33-.49-.41-.87-.24-1.24.04-.09.09-.17.15-.25.07-.08.14-.16.23-.25.04-.04.09-.08.14-.13.4-.35,1.01-.73,1.82-1.21.94.48,1.62.89,2.04,1.29.09.09.17.18.24.26Z"/>
    <path class="cls-1" d="M574.36,412.26c.1.09.17.18.24.26-.07-.09-.15-.18-.24-.26Z"/>
    <path class="cls-1" d="M576.43,584.15c-.94-.41-2.17-.45-3.27-.45-34.3-.05-68.61-.06-102.91-.08-.48,0-.95.02-1.42.04.47-.03.94-.05,1.41-.05,34.3.02,68.61.04,102.91.08,1.1,0,2.34.05,3.27.46Z"/>
    <path class="cls-1" d="M570.48,414.38c.15.18.32.38.52.59-.2-.21-.37-.41-.52-.59Z"/>
    <path class="cls-1" d="M570.5,412.17c-.05.05-.1.09-.14.13.05-.05.09-.09.14-.13Z"/>
    <path class="cls-1" d="M570.22,414.04c.08.11.16.22.26.34-.1-.12-.18-.23-.26-.34Z"/>
    <path class="cls-1" d="M570.36,412.3c-.09.09-.16.17-.23.25.07-.08.14-.17.23-.25Z"/>
    <path class="cls-1" d="M570.13,412.55c-.06.08-.11.16-.15.25.04-.09.09-.17.15-.25Z"/>
    <path class="cls-1" d="M561.69,371.3c3.05,1.73,3.06,2.07.19,4.43-2.87-2.47-2.87-2.5-.19-4.43Z"/>
    <path class="cls-1" d="M561.35,387.52c-3.69,1.3-7.22,2.5-9.84,4.75-.12.11-.25.21-.37.33-.12.11-.24.23-.36.35-.35.35-.68.73-.98,1.13-.61.8-1.13,1.72-1.54,2.76-.4-.97-.87-1.85-1.42-2.64-.18-.26-.37-.52-.57-.77-.1-.12-.2-.25-.31-.37-.31-.36-.63-.69-.98-1.01-.11-.11-.23-.21-.35-.31-.6-.51-1.24-.97-1.94-1.38-.28-.16-.56-.32-.85-.47t0,0c-.29-.15-.59-.29-.91-.43h0c-.47-.2-.95-.39-1.45-.56-1.18-.4-2.47-.72-3.85-.97,1.33-.62,2.66-1.2,3.92-1.81h0c1.26-.61,2.47-1.25,3.57-1.98.69-.46,1.34-.95,1.94-1.49,1.32-1.19,2.4-2.62,3.11-4.44.95,1.89,2.19,3.43,3.69,4.7,2.51,2.13,5.72,3.53,9.48,4.59Z"/>
    <path class="cls-1" d="M557.12,645.96c.38-.07.73-.14,1.05-.2-.32.06-.67.13-1.05.2Z"/>
    <path class="cls-1" d="M556.64,646.04h0s0,0-.01,0h0s0,0,0,0Z"/>
    <path class="cls-1" d="M553.2,350.36c3.25,1.03,3.42,2.4.56,4.69-.42-.28-.8-.53-1.12-.76-.24-.17-.44-.32-.62-.47-.17-.15-.32-.28-.44-.41-.04-.04-.08-.09-.11-.13-.28-.36-.31-.68-.12-1.05,0,0,0,0,0,0,.1-.2.27-.41.5-.65.14-.15.3-.3.49-.47.12-.11.26-.23.4-.36s.3-.26.46-.4Z"/>
    <path class="cls-1" d="M553.66,574.96s.08.06.12.09h-85.9v-103.93l.63.34c1.47.81,2.87,1.58,4.27,2.34.28-.11.56-.22.84-.33,0,1.36,0,2.72,0,4.07,0,2.04-.01,4.07,0,6.11,0,.68,0,1.36,0,2.04.12,17.14.31,34.26.3,51.4,0,1.59.49,2.72,1.46,3.59.57.53,1.31.95,2.21,1.33,6.18,2.6,12.37,5.18,18.53,7.83,12.62,5.44,25.23,10.92,37.83,16.39h0c6.4,2.78,12.79,5.56,19.19,8.34.03,0,.05.02.07.03.04.03.08.05.12.09.09.07.18.16.33.28Z"/>
    <path class="cls-1" d="M555.37,624.91c-1.14.01-2.26.02-3.36.03,1.1-.01,2.22-.02,3.36-.03Z"/>
    <path class="cls-1" d="M552.75,350.76c-.14.13-.28.25-.4.36.12-.11.26-.24.4-.36Z"/>
    <path class="cls-1" d="M552.02,353.83c.18.15.38.3.62.47-.24-.16-.44-.32-.62-.47Z"/>
    <path class="cls-1" d="M552.35,351.12c-.18.17-.34.32-.49.47.14-.15.3-.3.49-.47Z"/>
    <path class="cls-1" d="M551.58,353.42c.12.13.27.26.44.41-.18-.14-.32-.28-.44-.41Z"/>
    <path class="cls-1" d="M551.52,392.28c-.13.11-.25.22-.37.33.12-.11.25-.22.37-.33Z"/>
    <path class="cls-1" d="M551.86,351.59c-.23.24-.4.45-.5.65.1-.2.27-.41.5-.65Z"/>
    <path class="cls-1" d="M551.36,352.24c-.19.37-.16.69.12,1.05-.28-.36-.32-.68-.12-1.05Z"/>
    <path class="cls-1" d="M551.15,392.6c-.12.11-.24.23-.36.35.12-.12.24-.24.36-.35Z"/>
    <path class="cls-1" d="M550.79,392.95c-.35.35-.68.73-.98,1.13.31-.4.63-.78.98-1.13Z"/>
    <path class="cls-1" d="M548.72,462.32c.15,32.29.26,64.57.37,96.86,0,.31-.07.62-.1.93-5.6-.37-7.02-1.69-7.04-5.84-.01-3.71-.02-7.42,0-11.13.15-32.53.3-65.07.46-97.6.02-3.81,1.68-6.17,5.31-7.48.19,3.27.43,6.49.56,9.71.03.61.05,1.21.07,1.82.07,1.82.15,3.64.21,5.46.02.61.04,1.21.06,1.82.04,1.21.07,2.43.08,3.64.01.61.02,1.21.02,1.82Z"/>
    <path class="cls-1" d="M549.79,624.96c-.71,0-1.42.01-2.11.02.7,0,1.4-.02,2.11-.02Z"/>
    <path class="cls-1" d="M548.62,456.87c.04,1.21.07,2.43.08,3.64-.02-1.21-.05-2.43-.08-3.64Z"/>
    <path class="cls-1" d="M548.18,378.22c.95,1.88,2.19,3.43,3.69,4.7-1.5-1.28-2.75-2.82-3.69-4.7Z"/>
    <path class="cls-1" d="M548.34,449.59c.08,1.82.15,3.64.21,5.46-.07-1.82-.14-3.64-.21-5.46Z"/>
    <path class="cls-1" d="M546.61,624.99c-.69,0-1.36.01-2.02.02.66,0,1.33-.02,2.02-.02Z"/>
    <path class="cls-1" d="M543.56,625.02c-.65,0-1.3.02-1.93.02.63,0,1.28-.02,1.93-.02Z"/>
    <path class="cls-1" d="M541.61,625.04c-.63,0-1.26.01-1.87.02.61,0,1.23-.02,1.87-.02Z"/>
    <path class="cls-1" d="M539.72,625.07c-.61,0-1.21.01-1.8.02.59,0,1.19-.02,1.8-.02Z"/>
    <path class="cls-1" d="M537.89,625.09c-.59,0-1.17.02-1.73.02.57,0,1.15-.02,1.73-.02Z"/>
    <path class="cls-1" d="M536.14,625.11c-.57,0-1.12.02-1.67.02.55,0,1.1-.02,1.67-.02Z"/>
    <path class="cls-1" d="M533.63,625.15c-.53,0-1.05.02-1.56.02.51,0,1.03-.02,1.56-.02Z"/>
    <path class="cls-1" d="M531.3,625.18c-.5,0-.98.02-1.45.02.47,0,.95-.02,1.45-.02Z"/>
    <path class="cls-1" d="M526.8,518.39c5.67,3.23,4.12,4.05,2,6.19-.09.1-.18.18-.27.26-.09.08-.18.16-.27.23-.23.19-.46.33-.68.43-.05.03-.1.05-.14.06-.03.01-.06.02-.08.03-.05.02-.1.03-.15.05-.03,0-.06.01-.08.01-.07.01-.13.02-.19.03-.43.03-.86-.11-1.34-.42-.26-.17-.53-.39-.82-.66-2.83-2.6-2.64-3.18,2.03-6.22Z"/>
    <path class="cls-1" d="M528.26,525.07c.09-.07.17-.15.27-.23-.09.08-.18.16-.27.23Z"/>
    <path class="cls-1" d="M529.13,625.22c-.92.02-1.79.04-2.6.05.81-.02,1.68-.04,2.6-.05Z"/>
    <path class="cls-1" d="M515.61,615.78c7.2-.02,14.4-.05,21.61-.09-7.2.04-14.41.06-21.61.09Z"/>
    <path class="cls-1" d="M524.17,364.13c2.92,1.32,3.99,2.19.16,5.14-3.53-2.62-3.55-3.13-.16-5.14Z"/>
    <path class="cls-1" d="M523.03,461.03c.14.08.28.15.42.22-.97.73-1.79,1.37-2.62,1.98-.12.09-.25.17-.37.23-.12.07-.25.13-.37.17-.12.04-.25.08-.37.1-.26.05-.52.05-.76,0-.38-.09-.74-.31-1.03-.68-.43-.53-.75-1.66-.4-2.01.64-.65,1.85-1.31,2.75-1.26.52.04,1.03.26,1.55.55.39.22.79.47,1.2.7Z"/>
    <path class="cls-1" d="M523.78,408.41c-1.87.82-3.42,3.03-5.63.79-1.09-1.11-.12-2,.75-2.54,2.6-1.61,3.23,1.11,4.87,1.75Z"/>
    <path class="cls-1" d="M520.45,463.46c.12-.06.25-.15.37-.23-.12.09-.25.17-.37.23Z"/>
    <path class="cls-1" d="M519.71,463.73c.12-.02.25-.06.37-.1-.12.05-.25.08-.37.1Z"/>
    <path class="cls-1" d="M525.33,625.3c-2.85.06-4.91.14-6.04.21,1.13-.07,3.19-.14,6.04-.21Z"/>
    <path class="cls-1" d="M518.95,463.73c.24.05.5.05.76,0-.26.05-.52.05-.76,0Z"/>
    <path class="cls-1" d="M519.08,625.52c-.33.03-.56.05-.68.07.12-.03.35-.05.68-.07Z"/>
    <path class="cls-1" d="M518.39,625.59s-.07.02-.08.03t-.01,0s.05-.02.09-.03Z"/>
    <path class="cls-3" d="M518.3,625.62s0,0,.01,0c0,0,0,0-.01,0Z"/>
    <path class="cls-1" d="M518.28,436.64c.04.89-.38,1.73-1.08,2.38-.1.09-.2.17-.31.26s-.21.16-.33.23c-.82.53-1.87.84-3,.84-.34,0-.67-.03-.98-.07-.42-.06-.82-.17-1.18-.32-.58-.21-1.08-.53-1.47-.91-.09-.09-.17-.18-.25-.28t0,0c-.16-.19-.29-.4-.4-.63-.03-.05-.06-.11-.09-.17-.16-.4-.26-.84-.26-1.32h0c0-.54.09-1.04.26-1.48.02-.06.05-.12.08-.18.08-.19.18-.37.3-.54.14-.2.31-.38.49-.55.14-.13.3-.25.47-.35.29-.18.6-.33.96-.45.34-.11.71-.19,1.11-.23.17-.02.36-.03.54-.04.48-.01.95.04,1.4.14.11.02.22.05.33.08.85.23,1.61.65,2.2,1.19.1.1.2.19.29.29.18.2.35.42.48.65.05.07.09.15.12.22.04.09.08.17.11.26.02.04.03.07.04.11.06.16.1.33.13.5.02.13.04.26.04.38Z"/>
    <path class="cls-1" d="M514.86,433.04c-.11-.03-.21-.06-.33-.08.11.02.22.05.33.08Z"/>
    <path class="cls-1" d="M509.61,486.76c3.36,4.88,5.26,49.6,2.71,57.93h0c-1.24-.24-2.22-.44-3.01-.68-.56-.17-1.02-.35-1.4-.55-.23-.13-.42-.26-.59-.42-.97-.86-1.09-2.21-1.09-4.79,0-10.29-.05-20.58.02-30.88.03-4.52-.01-9.06.54-13.54.29-2.33,1.78-4.54,2.83-7.07Z"/>
    <path class="cls-1" d="M509.67,438.76c.08.1.16.19.25.28-.09-.09-.17-.18-.25-.28Z"/>
    <path class="cls-1" d="M509.56,434.44c-.12.17-.22.35-.3.54.08-.19.18-.37.3-.54Z"/>
    <path class="cls-1" d="M509.26,438.13c.11.22.25.43.4.63-.16-.19-.3-.4-.4-.63Z"/>
    <path class="cls-1" d="M509.18,435.16c-.17.44-.26.94-.26,1.48h0c0-.54.09-1.04.27-1.48Z"/>
    <path class="cls-1" d="M508.91,436.64c0,.47.1.92.26,1.32-.17-.4-.27-.84-.27-1.32h0Z"/>
    <path class="cls-1" d="M504.71,387.11c2.91,2.46,2.88,2.95-.39,4.86-1.9-1.42-1.77-3.05.39-4.86Z"/>
    <path class="cls-1" d="M499.13,614.59c.5.24,1.04.45,1.61.63-.57-.17-1.12-.38-1.62-.63-.8-.39-1.6-.78-2.39-1.17.8.4,1.6.79,2.4,1.17Z"/>
    <path class="cls-1" d="M499.32,466.38c-.44.3-.84.59-1.23.87-.26.19-.51.36-.75.53h0c-.25.17-.49.33-.74.48,0,0,0,0,0,0l-.38.22c-.81.45-1.61.43-2.27.12h0c-.17-.08-.34-.19-.5-.3-.19-.15-.37-.32-.53-.52-.61-.77-1.96-1.55-.7-2.74.06-.05.11-.11.18-.16,1.04-.84,2-1.49,3.31-.91h0c.11.06.23.12.35.19,1.07.63,2.05,1.37,3.27,2.2h0Z"/>
    <path class="cls-1" d="M495.7,463.99c.12.05.24.11.35.18-.12-.07-.24-.13-.35-.18Z"/>
    <path class="cls-1" d="M492.38,464.9c1.04-.84,2-1.49,3.31-.91-1.3-.58-2.27.07-3.31.91-.07.05-.12.11-.18.16.05-.05.11-.11.18-.16Z"/>
    <path class="cls-1" d="M493.39,410.37c.68.61.79,1.21.29,1.92-.07.1-.15.2-.24.3s-.19.21-.31.32c-.34.32-.79.67-1.35,1.04-2.53-2.37-2.5-2.57.32-4.43.55.29.98.58,1.29.85Z"/>
    <path class="cls-1" d="M488.27,501.59c2.57-.02,5.09,1.97,5.08,4.01,0,.75-.39,1.47-1.02,2.06-.3.27-.64.52-1.03.72-.13.07-.26.13-.4.19-.07.03-.14.06-.21.09-.28.11-.58.2-.88.27-.31.07-.63.12-.96.15-.16.01-.33.02-.5.02-2.81.01-4.35-1.33-4.33-3.76.02-2.34,1.59-3.71,4.24-3.74Z"/>
    <path class="cls-1" d="M491.3,508.37c.39-.21.73-.45,1.03-.72-.29.27-.64.52-1.03.72Z"/>
    <path class="cls-1" d="M490.9,508.56c.14-.06.27-.12.4-.19-.13.07-.26.13-.4.19Z"/>
    <path class="cls-1" d="M489.81,508.92c.31-.07.6-.16.88-.27-.28.11-.58.21-.88.27Z"/>
    <path class="cls-1" d="M488.85,509.07c.33-.03.64-.08.96-.15-.31.07-.63.12-.96.15Z"/>
    <path class="cls-1" d="M487.55,447.45c-3.93,3.69-3.19,2.95-6.57.36,2.66-3.14,3.22-3.17,6.57-.36Z"/>
    <path class="cls-1" d="M480.45,604.48c-.1.16-.2.31-.3.47h0c.1-.16.2-.31.3-.47h.01Z"/>
    <path class="cls-1" d="M468.84,583.65c-.47.03-.94.05-1.4.07v11.05h0v-11.05c.46-.02.93-.05,1.4-.07Z"/>
    <polygon class="cls-1" points="467.88 471.12 467.88 575.05 467.87 575.05 467.87 471.11 467.88 471.11 467.88 471.12"/>
  </g>
  <g>
    <path class="cls-2" d="M18.75,281.25c-5.47,0-9.96-1.76-13.48-5.27s-5.27-8-5.27-13.48V0h56.25v234.38c0,2.74.78,5.08,2.34,7.03,1.95,1.57,4.29,2.34,7.03,2.34,2.34,0,4.49-.78,6.45-2.34,1.95-1.95,2.93-4.29,2.93-7.03V0h56.25v234.38c0,2.74.78,5.08,2.34,7.03,1.95,1.57,4.29,2.34,7.03,2.34,2.34,0,4.49-.78,6.45-2.34,1.95-1.95,2.93-4.29,2.93-7.03V0h65.62v9.38h-9.38v262.5h9.38v9.38H18.75Z"/>
    <path class="cls-2" d="M234.38,281.25V0h56.25v103.12c0,2.74.78,5.08,2.34,7.03,1.95,1.57,4.29,2.34,7.03,2.34,2.34,0,4.49-.78,6.45-2.34,1.95-1.95,2.93-4.29,2.93-7.03V0h65.62v9.38h-9.38v262.5h9.38v9.38h-65.62v-103.12c0-2.34-.98-4.49-2.93-6.45-1.96-1.95-4.1-2.93-6.45-2.93-2.74,0-5.08.98-7.03,2.93-1.57,1.96-2.34,4.1-2.34,6.45v103.12h-56.25Z"/>
    <path class="cls-2" d="M412.5,281.25c-5.47,0-9.96-1.76-13.48-5.27s-5.27-8-5.27-13.48V18.75c0-5.07,1.76-9.38,5.27-12.89,3.52-3.9,8-5.86,13.48-5.86h93.75c5.07,0,9.38,1.96,12.89,5.86,3.9,3.52,5.86,7.82,5.86,12.89v243.75c0,5.47-1.96,9.96-5.86,13.48-3.52,3.52-7.82,5.27-12.89,5.27h-93.75ZM459.38,243.75c2.34,0,4.49-.78,6.45-2.34,1.95-1.95,2.93-4.29,2.93-7.03V46.88c0-2.34-.98-4.49-2.93-6.45-1.96-1.95-4.1-2.93-6.45-2.93-2.74,0-5.08.98-7.03,2.93-1.57,1.96-2.34,4.1-2.34,6.45v187.5c0,2.74.78,5.08,2.34,7.03,1.95,1.57,4.29,2.34,7.03,2.34Z"/>
    <path class="cls-2" d="M543.75,281.25v-9.38h9.38V0h56.25v234.38c0,2.74.78,5.08,2.34,7.03,1.95,1.57,4.29,2.34,7.03,2.34,2.34,0,4.49-.78,6.45-2.34,1.95-1.95,2.93-4.29,2.93-7.03V18.75c0-5.07,1.76-9.38,5.27-12.89,3.52-3.9,8-5.86,13.48-5.86h37.5v262.5c0,5.47-1.96,9.96-5.86,13.48-3.52,3.52-7.82,5.27-12.89,5.27h-121.88Z"/>
    <path class="cls-2" d="M703.12,281.25V0h65.62v9.38h-9.38v262.5h9.38v9.38h-65.62Z"/>
    <path class="cls-2" d="M787.5,281.25v-9.38h9.38V18.75c0-5.07,1.76-9.38,5.27-12.89,3.52-3.9,8-5.86,13.48-5.86h93.75c5.07,0,9.38,1.96,12.89,5.86,3.9,3.52,5.86,7.82,5.86,12.89v262.5h-56.25v-65.62c0-2.34-.98-4.49-2.93-6.45-1.96-1.95-4.1-2.93-6.45-2.93-2.74,0-5.08.98-7.03,2.93-1.57,1.96-2.34,4.1-2.34,6.45v65.62h-65.62ZM862.5,150c2.34,0,4.49-.78,6.45-2.34,1.95-1.95,2.93-4.29,2.93-7.03V28.12c0-2.34-.98-4.49-2.93-6.45-1.96-1.95-4.1-2.93-6.45-2.93-2.74,0-5.08.98-7.03,2.93-1.57,1.96-2.34,4.1-2.34,6.45v112.5c0,2.74.78,5.08,2.34,7.03,1.95,1.57,4.29,2.34,7.03,2.34Z"/>
    <path class="cls-2" d="M946.88,281.25v-9.38h9.38V9.38h-9.38V0h140.62v281.25h-56.25V46.88c0-2.34-.98-4.49-2.93-6.45-1.96-1.95-4.1-2.93-6.45-2.93-2.74,0-5.08.98-7.03,2.93-1.57,1.96-2.34,4.1-2.34,6.45v234.38h-65.62Z"/>
    <path class="cls-2" d="M1106.25,281.25v-9.38h9.38v-28.12h75V112.5h37.5c5.07,0,9.38,1.96,12.89,5.86,3.9,3.52,5.86,7.82,5.86,12.89v131.25c0,5.47-1.96,9.96-5.86,13.48-3.52,3.52-7.82,5.27-12.89,5.27h-121.88ZM1134.38,168.75c-5.47,0-9.96-1.76-13.48-5.27s-5.27-8-5.27-13.48V18.75c0-5.07,1.76-9.38,5.27-12.89,3.52-3.9,8-5.86,13.48-5.86h112.5v37.5h-75v131.25h-37.5Z"/>
    <path class="cls-2" d="M103.12,1001.25v-9.38h9.38v-262.5h-9.38v-9.38h196.88c5.07,0,9.38,1.96,12.89,5.86,3.9,3.52,5.86,7.82,5.86,12.89v262.5h-56.25v-234.38c0-2.34-.98-4.49-2.93-6.45-1.96-1.95-4.1-2.93-6.45-2.93-2.74,0-5.08.98-7.03,2.93-1.57,1.96-2.34,4.1-2.34,6.45v234.38h-56.25v-234.38c0-2.34-.98-4.49-2.93-6.45-1.96-1.95-4.1-2.93-6.45-2.93-2.74,0-5.08.98-7.03,2.93-1.57,1.96-2.34,4.1-2.34,6.45v234.38h-65.62Z"/>
    <path class="cls-2" d="M356.25,1001.25c-5.47,0-9.96-1.76-13.48-5.27s-5.27-8-5.27-13.48v-243.75c0-5.07,1.76-9.38,5.27-12.89,3.52-3.9,8-5.86,13.48-5.86h93.75c5.07,0,9.38,1.96,12.89,5.86,3.9,3.52,5.86,7.82,5.86,12.89v243.75c0,5.47-1.96,9.96-5.86,13.48-3.52,3.52-7.82,5.27-12.89,5.27h-93.75ZM403.12,963.75c2.34,0,4.49-.78,6.45-2.34,1.95-1.95,2.93-4.29,2.93-7.03v-187.5c0-2.34-.98-4.49-2.93-6.45-1.96-1.95-4.1-2.93-6.45-2.93-2.74,0-5.08.98-7.03,2.93-1.57,1.96-2.34,4.1-2.34,6.45v187.5c0,2.74.78,5.08,2.34,7.03,1.95,1.57,4.29,2.34,7.03,2.34Z"/>
    <path class="cls-2" d="M506.25,1001.25c-5.47,0-9.96-1.76-13.48-5.27s-5.27-8-5.27-13.48v-262.5h56.25v234.38c0,2.74.78,5.08,2.34,7.03,1.95,1.57,4.29,2.34,7.03,2.34,2.34,0,4.49-.78,6.45-2.34,1.95-1.95,2.93-4.29,2.93-7.03v-234.38h56.25v262.5c0,5.47-1.96,9.96-5.86,13.48-3.52,3.52-7.82,5.27-12.89,5.27h-93.75Z"/>
    <path class="cls-2" d="M665.62,1001.25c-5.47,0-9.96-1.76-13.48-5.27s-5.27-8-5.27-13.48v-253.12h-9.38v-9.38h65.62v243.75h18.75c5.07,0,9.38,1.96,12.89,5.86,3.9,3.52,5.86,7.82,5.86,12.89v18.75h-75Z"/>
    <path class="cls-2" d="M759.38,1001.25v-281.25h65.62v9.38h-9.38v262.5h9.38v9.38h-65.62Z"/>
    <path class="cls-2" d="M843.75,1001.25v-9.38h9.38v-262.5h-9.38v-9.38h140.62v281.25h-56.25v-234.38c0-2.34-.98-4.49-2.93-6.45-1.96-1.95-4.1-2.93-6.45-2.93-2.74,0-5.08.98-7.03,2.93-1.57,1.96-2.34,4.1-2.34,6.45v234.38h-65.62Z"/>
    <path class="cls-2" d="M1003.12,1001.25v-9.38h9.38v-28.12h75v-131.25h37.5c5.07,0,9.38,1.96,12.89,5.86,3.9,3.52,5.86,7.82,5.86,12.89v131.25c0,5.47-1.96,9.96-5.86,13.48-3.52,3.52-7.82,5.27-12.89,5.27h-121.88ZM1031.25,888.75c-5.47,0-9.96-1.76-13.48-5.27s-5.27-8-5.27-13.48v-131.25c0-5.07,1.76-9.38,5.27-12.89,3.52-3.9,8-5.86,13.48-5.86h112.5v37.5h-75v131.25h-37.5Z"/>
  </g>
</svg>