<?xml version="1.0" encoding="UTF-8"?>
<svg id="Calque_1" data-name="Calque 1" xmlns="http://www.w3.org/2000/svg" viewBox="0 0 1452.4 992.57">
  <defs>
    <style>
      .cls-1 {
        fill: #00203c;
      }

      .cls-1, .cls-2, .cls-3 {
        stroke-width: 0px;
      }

      .cls-2 {
        fill: #00203c;
      }

    </style>
  </defs>
  <g>
    <path class="cls-1" d="M696.4,623.1c.02,5.16,0,10.33,0,15.93,0-5.6.01-10.77,0-15.93Z"/>
    <path class="cls-1" d="M696.4,623.1c.01,5.16,0,10.33,0,15.93h-169.16c-.15-.27-.29-.53-.44-.8.15-.1.3-.19.44-.29.3-.2.59-.4.88-.61.73-.5,1.46-1,2.25-1.37,14.5-6.99,29.08-13.84,43.53-20.9,25.51-12.46,50.94-25.07,76.43-37.58,8.98-4.4,17.95-8.82,27.05-12.97,4.27-1.94,5.97-4.76,5.96-9.19-.08-34.32-.07-68.63.07-102.95.02-4.54,1.14-9.07,1.46-13.62.23-3.31,1.72-6.6.97-9.96-.08-.38-.19-.75-.34-1.13-.07-.21-.16-.41-.26-.62-.2-.42-.45-.84-.74-1.26-.95-1.35-.61-3.94-.02-5.72.5-1.54,2.25-3.9,3.33-3.84,2.08.11,4.62,1.24,5.94,2.75,1.24,1.43,1.55,3.89,1.57,5.9.11,7.42.18,14.84.23,22.26.05,7.43.08,14.85.12,22.27.25,51.23.49,102.47.73,153.7Z"/>
    <path class="cls-1" d="M696.17,657.78v25.13c-87.11,0-174.01,0-260.92-.07-.06,0-.12-.04-.18-.11-.04-.04-.08-.1-.13-.17-.04-.07-.08-.15-.13-.24-.21-.4-.43-.96-.69-1.43,10.58-4.91,21.05-9.77,31.53-14.62.26-.12.63-.05.85-.19,12.42-8.25,26.47-8.34,40.91-8.28,61.02.25,122.02.03,183.04-.02h5.72Z"/>
    <path class="cls-1" d="M685.84,428.79c-.08-.38-.19-.75-.34-1.13.15.38.26.75.34,1.13Z"/>
    <path class="cls-1" d="M684.5,425.78c.29.42.54.84.74,1.26-.2-.42-.45-.84-.74-1.26Z"/>
    <path class="cls-1" d="M87.92,703.5h583.03c-.92.94-1.52,1.68-2.05,2.22-.33.33-.63.59-.97.78-1.52.84-3.03,1.67-4.55,2.51-3.03,1.67-6.07,3.34-9.1,5.01-3.04,1.67-6.09,3.33-9.14,4.98-4.57,2.48-9.16,4.93-13.77,7.35-.38.2-.78.36-1.2.5-1.85.6-4.04.68-6.03.68-29.91.02-59.82.02-89.73.02-76.17,0-152.34-.03-228.51.06h-.26c-14.13.02-28.27.06-42.4.12-21.43.09-42.87.21-64.31.32-14.09.07-28.17.14-42.25.19-7.17.03-14.33.05-21.5.06-2.48,0-5.14-.46-7.58-1.29-1.11-.38-2.17-.84-3.15-1.37-1.57-.85-3.13-1.7-4.69-2.57-10.9-6.02-21.62-12.35-32.43-18.55.2-.34.39-.68.59-1.02Z"/>
    <path class="cls-1" d="M671,301.48c-10.36,4.08-19.84,8.45-26.37,15.8-2.18,2.45-4.03,5.23-5.47,8.44-.42.92-.8,1.87-1.14,2.86s-.65,2.01-.93,3.08c-8.53-14.28-20.48-24.52-38.28-29.76,16.2-7,30.69-13.75,36.65-31.1,6.69,15.97,18.13,25.73,35.54,30.68Z"/>
    <path class="cls-1" d="M658.74,362.83c5.05,3.04,7.04,6-1.51,11.15-2.8-5.56-2.29-9.28,1.51-11.15Z"/>
    <path class="cls-1" d="M654.89,473.12c.56.57,1.16,1.15,1.79,1.75-3.61,2.9-6.66,6.97-8.62,6.54-1.22-.26-2.41-1.1-3.49-2.21-.77-.79-1.48-1.72-2.1-2.67l-.36-.57c-.23-.38-.45-.76-.65-1.13-.1-.18-.19-.37-.28-.55-.36-.72.13-1.91,1-3.12.2-.28.42-.56.66-.84.32-.37.66-.73,1.01-1.07.18-.17.36-.34.54-.5,1.46-1.27,3-2.1,3.75-1.65,1.47.86,2.77,2.01,4.11,3.34l.51.51c.68.68,1.38,1.41,2.13,2.17Z"/>
    <path class="cls-1" d="M644.63,317.28c-2.17,2.45-4.02,5.23-5.47,8.44,1.44-3.21,3.29-5.99,5.47-8.44Z"/>
    <path class="cls-1" d="M639.16,325.72c-.41.92-.79,1.87-1.14,2.86.34-.99.72-1.94,1.14-2.86Z"/>
    <path class="cls-1" d="M622.84,200.94c2.24,2.06.87,4.61-4.15,8.74-5.88-5.37-5.88-6.96-.23-11.05,1.13.41,2.08.82,2.86,1.25.62.34,1.13.69,1.52,1.06Z"/>
    <path class="cls-1" d="M620.58,562.44c.04,2.97-.58,5.12-2.19,6.68,1.6-1.57,2.22-3.72,2.18-6.68-.51-33.68-.62-67.36-1.09-101.05,0-.56-.04-1.13-.08-1.7.05.57.08,1.14.09,1.7.47,33.68.59,67.37,1.09,101.05Z"/>
    <path class="cls-1" d="M620.57,562.44c.04,2.96-.58,5.11-2.18,6.68-.93.92-2.18,1.62-3.83,2.18-2.03.68-3.88,1.84-6.24,2.99-.04-.68-.1-1.34-.15-2-.04-.66-.08-1.3-.08-1.94,0-3.2,0-6.41,0-9.61,0-14.07,0-28.13.09-42.18.02-2.47.04-4.93.06-7.4.02-2.15.04-4.29.06-6.44.05-4.29.11-8.59.17-12.88.14-8.59.33-17.17.61-25.75.08-2.15.15-4.3.24-6.44.01-.3.03-.6.05-.91.35-4.54,2-9.03,2.94-13.25,2.02-.52,3.36-.5,4.16.28.44.44.72,1.11.85,2.06.24,1.7.6,3.4.95,5.09s.71,3.39.94,5.08c.08.57.14,1.13.19,1.69.04.57.07,1.14.08,1.7.47,33.69.58,67.37,1.09,101.05Z"/>
    <path class="cls-1" d="M619.21,458c.08.57.14,1.13.19,1.69-.05-.56-.11-1.12-.19-1.69Z"/>
    <path class="cls-1" d="M617.33,447.83c.24,1.7.59,3.4.94,5.09-.35-1.69-.71-3.39-.95-5.09-.13-.95-.41-1.62-.85-2.06.45.43.73,1.1.86,2.06Z"/>
    <path class="cls-1" d="M607.27,242.27c5.92,4.01,6.03,6.66.4,10.04-4.79-3.59-5.71-5.08-2.88-7.89.11-.11.22-.22.34-.33.23-.22.48-.44.76-.68.41-.36.87-.74,1.38-1.14Z"/>
    <path class="cls-1" d="M595.08,394.5c.43.3.88.56,1.35.75-.53.28-1.02.67-1.48,1.13-.99.95-1.87,2.15-2.88,2.96-.1.08-.21.17-.32.24-.93.64-1.97.91-3.3.37-.49-.21-1.02-.52-1.6-.97-.47-.36-.88-.77-1.2-1.21-.21-.3-.39-.6-.53-.92-.57-1.33-.41-2.81.87-4.1.12-.12.24-.23.38-.35,2.89-2.46,4.79-1.22,6.64.37.68.59,1.35,1.22,2.07,1.73Z"/>
    <path class="cls-1" d="M593.8,748.99c-2.41,1.54-4.79,3.14-7.2,4.68-1.45.92-2.91,1.82-4.4,2.67-8.75,5.01-17.38,10.31-26.54,14.56-.55.26-1.11.49-1.69.71-.29.1-.59.21-.89.31-.59.19-1.19.37-1.8.53-.62.15-1.25.3-1.88.42-.95.19-1.9.33-2.86.45-1.93.23-3.88.33-5.75.33-109.38.15-218.74.12-328.11.05-2.53,0-5.36-.47-7.56-1.58-9.56-4.83-19.06-9.78-28.7-14.8-2.98-1.55-5.98-3.12-9-4.69-1.82-.95-3.64-1.89-5.47-2.84.02-.02.08-.04.16-.07,0,0,.01,0,.01,0,.24-.05.68-.1,1.33-.16.14-.02.28-.03.43-.03,2.21-.15,6.23-.31,11.8-.45.76-.03,1.54-.05,2.34-.06,1.59-.03,3.28-.07,5.08-.11l1.41-.03c.92-.01,1.86-.03,2.83-.05.5-.02,1.01-.02,1.52-.03.99,0,2.01-.03,3.05-.05.54-.02,1.08-.02,1.63-.03,1.07,0,2.15-.03,3.26-.05h.04c1.11-.01,2.24-.03,3.39-.05h.05c1.15-.02,2.32-.03,3.52-.05h.05c1.19-.02,2.41-.03,3.65-.05h.04c1.24-.01,2.5-.03,3.78-.05.66,0,1.34-.02,2.01-.02,1.3-.02,2.61-.03,3.95-.05.69-.01,1.4-.02,2.1-.02,1.35-.02,2.73-.03,4.12-.05,1.43-.02,2.88-.03,4.35-.04,2.15-.02,4.33-.04,6.56-.07,70.93-.67,179.58-.97,258.95-.7,3.37.02,6.68.03,9.94.04h.33c2.13.01,4.24.02,6.33.03,1.2.01,2.39.01,3.58.02,2.06.01,4.09.02,6.1.03,10.05.06,19.38.13,27.79.21.82.01,1.63.02,2.43.03.49,0,.98,0,1.46,0,.79.01,1.58.02,2.35.03h.15c.78.01,1.54.02,2.3.03.45,0,.89.01,1.34.01.75,0,1.49.02,2.22.03h.15c1.89.03,3.72.06,5.48.08h.09c1.04.02,2.06.03,3.05.05h.12c.99.02,1.95.04,2.89.05h.09c1.27.03,2.49.05,3.66.07.32.01.64.01.96.02,4.05.09,7.5.18,10.26.28.24,0,.47.02.69.02.74.03,1.42.06,2.05.09.18.01.36.02.53.02.28.02.55.03.81.05.17.01.33.02.49.02.25.02.48.03.7.05h.05c.22.02.42.03.61.05.62.05,1.11.1,1.44.15Z"/>
    <path class="cls-1" d="M593.01,392.77c.68.58,1.36,1.21,2.07,1.73-.72-.51-1.39-1.14-2.07-1.73Z"/>
    <path class="cls-1" d="M592.36,748.84c-.19-.02-.39-.03-.61-.05.22.02.42.03.61.05Z"/>
    <path class="cls-1" d="M591.7,748.79c-.22-.02-.45-.03-.7-.05.24.02.48.03.7.05Z"/>
    <path class="cls-1" d="M590.51,748.72c-.26-.02-.53-.03-.81-.05.28.02.55.03.81.05Z"/>
    <path class="cls-1" d="M589.39,512.66h0c-1.55,1.29-2.83,2.42-3.83,3.42-.33.31-.63.62-.9.92h0c-.4.44-.73.84-.98,1.2,0,0,0,0,0,.01-.17.23-.31.45-.41.65-.19.37-.26.68-.22.93h-4.85c.04-.07.09-.14.13-.21.94-1.65.24-4.12-1.11-5.43-.27-.27-.57-.49-.9-.64h-.01c-.42-.2-.89-.29-1.36-.21-.36.07-.72.17-1.08.3-.18.07-.37.14-.56.22-.95.4-2.02.97-3.49,1.6.09-.14.18-.27.27-.4.64-.92,1.16-1.67,1.62-2.32.26-.37.5-.7.73-1.03.22-.33.44-.64.66-.95.13.33.26.65.39.98,3.11-.89,6.21-1.79,9.89-2.85-.17-.24-.34-.48-.5-.7-.32-.45-.61-.86-.89-1.24-.14-.2-.27-.38-.4-.56-.33-.46-.64-.89-.94-1.31-.16-.23-.31-.45-.48-.68.11-.1.22-.19.33-.29.11-.09.22-.18.33-.28,2.86,2.96,5.7,5.91,8.56,8.87Z"/>
    <path class="cls-1" d="M589.17,748.65c-.63-.03-1.31-.06-2.05-.09.74.03,1.42.06,2.05.09Z"/>
    <path class="cls-1" d="M581.99,506.91c.28.38.57.79.89,1.24-.32-.45-.62-.86-.89-1.24Z"/>
    <path class="cls-1" d="M580.65,505.04c.3.42.61.85.94,1.31-.33-.46-.64-.89-.94-1.31Z"/>
    <path class="cls-1" d="M580.83,503.78h0c-.11.11-.22.2-.33.29.11-.1.22-.2.33-.29Z"/>
    <path class="cls-1" d="M580.5,504.07c-.11.1-.22.19-.33.29h0c.11-.11.22-.2.33-.29Z"/>
    <path class="cls-1" d="M578.33,519.58c-.04.07-.09.14-.13.21h-.01c.05-.07.09-.14.14-.21Z"/>
    <path class="cls-1" d="M586.43,748.54c-2.76-.1-6.21-.19-10.26-.28,4.06.08,7.5.17,10.26.28Z"/>
    <path class="cls-1" d="M575.75,322.26c5.44,5.55,5.34,6.72-.57,9.96-4.68-3.51-4.65-4.64.57-9.96Z"/>
    <path class="cls-1" d="M575.21,748.24c-1.17-.02-2.39-.04-3.66-.07,1.26.02,2.48.04,3.66.07Z"/>
    <path class="cls-1" d="M571.71,512.7c.26-.37.5-.71.73-1.03-.23.33-.47.66-.73,1.03Z"/>
    <path class="cls-1" d="M570.09,515.02c-.09.13-.18.26-.27.4h-.01c.1-.14.19-.27.28-.4Z"/>
    <path class="cls-1" d="M571.46,748.17c-.94-.01-1.9-.03-2.89-.05.99.01,1.95.03,2.89.05Z"/>
    <path class="cls-1" d="M568.45,748.12c-.99-.02-2.01-.03-3.05-.05,1.04.01,2.06.03,3.05.05Z"/>
    <path class="cls-1" d="M565.31,748.07c-1.76-.02-3.59-.05-5.48-.08,1.9.02,3.72.05,5.48.08Z"/>
    <path class="cls-1" d="M559.68,747.99c-.73-.01-1.47-.02-2.22-.03.75,0,1.49.02,2.22.03Z"/>
    <path class="cls-1" d="M556.12,747.95c-.76-.01-1.52-.02-2.3-.03.78.01,1.54.02,2.3.03Z"/>
    <path class="cls-1" d="M553.67,747.92c-.77-.01-1.56-.02-2.35-.03.79.01,1.58.02,2.35.03Z"/>
    <path class="cls-1" d="M551.55,591.51c.09,1.95-.03,3.71-.39,5.28-.09.35-.18.69-.29,1.02-.05.17-.11.33-.17.49-.12.33-.25.64-.39.94-.15.31-.31.6-.48.89-.17.28-.35.55-.55.82-.3.4-.63.78-.99,1.14-.06.07-.13.13-.19.19-.18.17-.38.34-.58.51-.67.55-1.43,1.05-2.29,1.49t0,.01c-.52.26-1.06.5-1.64.73-.01,0-.01.01-.01.01-.59.22-1.21.42-1.86.61-.46.13-.91.29-1.42.49-.16.06-.34.14-.52.21-.27.11-.56.23-.88.36-.53.21-1.13.45-1.84.73,1.92-92.87-2.49-184.92,2.95-277.75,1.27.67,2.41,1.22,3.43,1.72,1.03.51,1.95.98,2.79,1.47.56.33,1.09.67,1.59,1.04.08.06.17.14.25.22.33.34.6.85.78,1.37.17.51.25,1.03.19,1.45-.01.12-.04.23-.08.33h0c-.34.84-.65,1.67-.91,2.49-.4,1.24-.71,2.48-.91,3.71-.48,2.88-.43,5.75.28,8.61.4,1.63,1.01,3.27,1.85,4.91.37.72.38,1.64.41,2.46.29,8.78.78,17.56.8,26.34.09,53.78.02,107.56.15,161.33.01,3.7.03,7.41.06,11.11.08,9.24.27,18.49.63,27.73.08,1.85.15,3.69.24,5.54Z"/>
    <path class="cls-1" d="M551.16,596.79c-.08.35-.18.69-.29,1.02.11-.33.2-.67.29-1.02Z"/>
    <path class="cls-1" d="M550.68,558.24c.09,9.25.27,18.5.63,27.73-.36-9.24-.55-18.49-.63-27.73Z"/>
    <path class="cls-1" d="M549.22,174.54c.93,1.42,1.38,3.27,1.35,5.51-.01.35-.03.69-.07,1.02-.07.73-.22,1.42-.45,2.05-.06.17-.12.34-.19.51-.11.26-.24.51-.37.75-.14.24-.29.48-.45.7-.24.33-.51.63-.8.92-.11.11-.22.21-.34.31-.41.35-.86.66-1.35.94-.01-.01-.01,0-.01,0-.51.28-1.07.51-1.66.7-.3.09-.61.17-.93.25-.3.07-.62.13-.95.17-.11.02-.23.03-.34.05-.69.08-1.43.12-2.21.1-5.56-.11-10.03-4.1-10.15-9.05-.01-.65.06-1.29.21-1.89.07-.28.15-.54.25-.81.07-.17.14-.35.23-.52.1-.22.21-.43.33-.63.22-.37.47-.72.76-1.06.09-.11.19-.22.29-.32.32-.34.66-.65,1.04-.94.22-.18.45-.34.69-.5.13-.08.27-.16.41-.24.4-.24.83-.45,1.27-.64.16-.06.32-.13.49-.19.15-.05.31-.11.47-.16.48-.16.98-.28,1.5-.38.93-.19,1.92-.28,2.95-.26,3.06.05,5.41.85,6.99,2.35.39.38.74.79,1.04,1.26Z"/>
    <path class="cls-1" d="M550.7,598.3c-.11.32-.25.64-.39.94.14-.3.27-.61.39-.94Z"/>
    <path class="cls-1" d="M549.83,600.13c-.17.28-.35.56-.55.82.2-.27.38-.54.55-.82Z"/>
    <path class="cls-1" d="M548.84,335.5c.18.51.26,1.04.19,1.45.06-.42-.02-.94-.19-1.45Z"/>
    <path class="cls-1" d="M549.86,747.88c-.8-.01-1.61-.02-2.43-.03.82.01,1.63.02,2.43.03Z"/>
    <path class="cls-1" d="M547.81,333.9c.09.06.17.14.25.23-.08-.08-.17-.16-.25-.22-.5-.37-1.03-.71-1.59-1.04.56.33,1.09.66,1.59,1.03Z"/>
    <path class="cls-1" d="M542.66,188.42c.11-.02.23-.03.34-.05-.11.02-.22.03-.34.05Z"/>
    <path class="cls-1" d="M540,329.67c1.27.66,2.41,1.22,3.43,1.73-1.02-.5-2.16-1.05-3.43-1.72h0Z"/>
    <path class="cls-1" d="M534.41,727.55c-76.17,0-152.34-.03-228.51.06,76.17-.09,152.34-.06,228.51-.06Z"/>
    <path class="cls-1" d="M530.01,236.29c1.73,1.4,2.91,3.35,2.86,5.23-.07,2.88-5.03,8.24-7.65,8.27-2.13.02-6.85-6.48-6.81-9.37.06-3.42,2.89-6.17,6.36-6.16.12,0,.25,0,.37.01.25.02.5.05.74.09.38.06.74.15,1.11.27.85.27,1.66.69,2.41,1.2.21.15.41.3.61.46Z"/>
    <path class="cls-1" d="M529.4,235.83c.21.14.41.3.61.46-.2-.16-.4-.31-.61-.46Z"/>
    <path class="cls-1" d="M527.24,637.94c.3-.2.59-.41.88-.61-.29.21-.58.41-.88.61Z"/>
    <path class="cls-1" d="M526.99,234.63c.85.27,1.66.68,2.41,1.2-.75-.51-1.56-.93-2.41-1.2Z"/>
    <path class="cls-1" d="M525.14,234.27c.25.02.5.04.74.09-.24-.04-.49-.07-.74-.09Z"/>
    <path class="cls-1" d="M516.77,794.57h0c-.32-.09-.63-.21-.95-.34.32.12.64.24.96.34Z"/>
    <path class="cls-1" d="M516.76,794.58c-.11.12-.23.24-.34.36-.22.25-.43.51-.64.76-.54.65-1.09,1.27-1.79,1.65-13.07,7.13-26.19,14.21-39.36,21.17-.68.36-1.44.66-2.23.88-1.16.35-2.39.53-3.55.53-14.88.02-29.76.03-44.64.04-29.8.01-59.61.01-89.41.02-14.88.01-29.75.02-44.63.03-7.15,0-12.57-3.81-18.32-6.84-.18-.11-.37-.2-.55-.3-5.59-2.88-11.14-5.84-16.82-8.89-4.26-2.3-8.6-4.65-13.09-7.06-1.48-.81-2.99-1.62-4.51-2.43.16-.03.31-.06.47-.09l.48-.09c.75-.15,1.43-.3,2.06-.43,1.2-.26,2.22-.45,3.24-.45h0c89.92-.04,179.85-.04,269.78.01.96,0,1.92.41,2.88.78h0c.32.13.63.25.95.35Z"/>
    <path class="cls-1" d="M519.64,747.64c-2.01,0-4.04-.02-6.1-.03,2.06.01,4.09.02,6.1.03Z"/>
    <path class="cls-1" d="M516.42,794.94c-.21.25-.43.51-.64.76.21-.25.42-.51.64-.76Z"/>
    <path class="cls-1" d="M512.93,793.44c.96,0,1.91.41,2.87.79-.96-.37-1.92-.78-2.88-.78-89.93-.05-179.86-.05-269.78-.01,89.93-.05,179.85-.05,269.79,0Z"/>
    <path class="cls-1" d="M509.96,747.59c-2.09-.01-4.2-.02-6.33-.03,2.14.01,4.25.02,6.33.03Z"/>
    <path class="cls-1" d="M505.23,609.76c.02,3.12-.2,5.74-.75,7.97.54-2.24.76-4.85.74-7.97-.18-29.26-.58-58.52-.63-87.77-.11-55.36-.03-110.7-.03-166.06v-5.15h.01v5.15c0,55.36-.07,110.71.03,166.06.05,29.25.45,58.51.63,87.77Z"/>
    <path class="cls-1" d="M505.22,609.76c.02,3.12-.2,5.73-.74,7.97-.06.27-.13.54-.21.81-.53,1.79-1.29,3.33-2.32,4.69,0,0,.01.01,0,.01-.31.38-.62.75-.96,1.11-.69.72-1.48,1.39-2.37,2.03-.45.31-.92.62-1.42.92s-1.03.59-1.59.87-1.14.56-1.75.84c-1.24.55-2.59,1.08-4.07,1.61-6.26,2.24-12.27,5.08-18.73,7.78h0v-271.22h-183.18v273.32c-7.63-3.68-14.5-6.95-21.34-10.28-.78-.38-1.55-.78-2.32-1.19-1.14-.62-2.28-1.25-3.42-1.84h-.01c-.77-.4-1.54-.78-2.33-1.12-.39-.17-.79-.34-1.19-.49-1.11-.42-1.92-.94-2.51-1.56-1.31-1.36-1.53-3.19-1.52-5.41.1-30.41.04-60.82.06-91.23.02-57.17.05-114.34.08-171.51v-4.87h15.71v-15h14.04c.41-6.71.79-12.92,1.19-19.51h69.19v-17.72h12.86c0-7.15-.26-13.91.09-20.65.04-.76.17-1.46.37-2.11.09-.26.18-.52.28-.76.16-.37.35-.72.55-1.05.35-.56.76-1.07,1.22-1.55.09-.09.18-.19.28-.28.57-.56,1.21-1.07,1.91-1.54.46-.31.94-.6,1.43-.88h.01c.5-.28,1.01-.55,1.52-.81.27-.12.53-.25.8-.37.36-.17.72-.31,1.07-.43.22-.07.43-.13.64-.18,1.6-.4,3.1-.26,4.52.23.28.1.56.21.84.33.14.05.29.12.43.19.27.14.54.28.82.44.14.07.28.16.42.24.27.17.53.35.8.53.28.18.55.37.82.57,1.22.9,2.29,1.83,3.19,2.85.9,1.01,1.62,2.1,2.14,3.29,0,0,0,0,0,.01.74,1.72,1.08,3.67.92,5.94-.35,5.09.48,10.25.83,15.89h10.99c.51,6.02.97,11.53,1.47,17.57h69.54v19.32h13.37v15.22h16.92v5.15c0,55.36-.08,110.7.03,166.06.05,29.25.45,58.51.63,87.77Z"/>
    <path class="cls-1" d="M501.95,623.23c1.03-1.36,1.79-2.9,2.32-4.69-.52,1.79-1.27,3.33-2.32,4.69Z"/>
    <path class="cls-1" d="M501.95,623.24c-.29.38-.61.76-.96,1.11.34-.36.65-.73.96-1.11Z"/>
    <path class="cls-1" d="M498.62,626.38c.89-.64,1.68-1.31,2.37-2.03-.68.73-1.47,1.4-2.37,2.03Z"/>
    <path class="cls-1" d="M497.2,627.3c.5-.3.97-.61,1.42-.92-.44.32-.92.62-1.42.92Z"/>
    <path class="cls-1" d="M503.3,747.56c-3.26-.01-6.57-.02-9.94-.04,3.37.01,6.69.02,9.94.04Z"/>
    <path class="cls-1" d="M495.61,628.17c-.56.29-1.14.57-1.75.84.61-.28,1.19-.56,1.75-.84Z"/>
    <path class="cls-1" d="M495.96,294.26c-3.44,2.08-5.25,7.14-10.04,2.59-.23-.22-.42-.42-.58-.63s-.29-.41-.39-.6c-.54-1.06-.27-1.98.38-2.83.01,0,0-.01,0-.01.17-.21.36-.42.56-.62.1-.1.21-.2.32-.3,4.15-3.73,6.38.44,9.75,2.4Z"/>
    <rect class="cls-1" x="487.64" y="335.56" width=".01" height="15.22"/>
    <path class="cls-1" d="M483.35,203.7c5.31,6.77,5.21,7.42-1.48,10.46-2.85-2.51-2.36-5.99,1.48-10.46Z"/>
    <rect class="cls-1" x="474.27" y="316.24" width=".01" height="19.32"/>
    <path class="cls-1" d="M464.44,249.5c-4.72-.75-13.44,4.44-14.62,8.27-3.42-2.7-6.75-5.33-10.59-8.37,4.22-3.18,8.29-6.22,12.7-9.53,4.02,3.09,7.97,6.14,12.51,9.63Z"/>
    <path class="cls-1" d="M461.16,173.09c.87,1.06.95,1.95.25,3.05l-.21.3c-.15.21-.33.42-.53.64-.81.89-2.02,1.93-3.62,3.26-5.49-4.38-5.49-4.51-.35-10.84,1.73,1.22,3.03,2.17,3.89,2.99.22.21.4.41.57.6Z"/>
    <path class="cls-1" d="M447.3,431.2c0,8.08.21,15.94-.08,23.81-.03.74-.15,1.39-.36,1.94-.14.37-.32.7-.52,1,0,0,0,.01,0,.01-.11.15-.22.29-.34.42-.12.14-.25.27-.38.37-.27.23-.56.42-.88.6h-.01c-1.35.71-3.14.9-5.03.79-.23-.01-.47-.03-.7-.05h-.01c-.47-.05-.94-.12-1.4-.19-1.18-.18-2.35-.41-3.53-.51-7.27-.62-10.9-4.42-10.9-11.4v-16.78h0s24.14-.01,24.14-.01Z"/>
    <rect class="cls-1" x="423.66" y="396.39" width="23.09" height="28.21"/>
    <path class="cls-1" d="M446.86,456.95c-.13.37-.31.7-.52,1,.2-.3.38-.63.52-1Z"/>
    <path class="cls-1" d="M446,458.38c.12-.13.23-.27.34-.42-.1.15-.22.3-.34.42Z"/>
    <path class="cls-1" d="M445.62,458.75c-.27.24-.56.44-.88.6.32-.18.61-.37.88-.6Z"/>
    <path class="cls-1" d="M441.88,839.58c.19.29.37.58.56.85-3.79,2.3-7.54,4.65-11.35,6.92-1.27.75-2.54,1.5-3.83,2.23-13.94,7.93-27.93,15.76-41.91,23.61-.75.42-1.49.78-2.22,1.06h-.01c-.73.28-1.46.48-2.19.6-1.63.26-3.28.11-5.05-.58-.63-.23-1.29-.54-1.96-.93-17.04-9.74-34.34-19.07-51.51-28.59-2.21-1.23-4.26-2.73-6.39-4.11.18-.35.37-.69.54-1.05h0s125.32-.01,125.32-.01Z"/>
    <path class="cls-1" d="M439.7,460.14c1.89.11,3.68-.08,5.03-.79-1.36.71-3.14.91-5.03.8-.23-.01-.47-.03-.7-.06.23.02.47.04.7.05Z"/>
    <path class="cls-1" d="M437.59,459.9c.46.07.93.14,1.4.19-.47-.05-.93-.11-1.4-.19Z"/>
    <path class="cls-1" d="M434.94,682.56c.05.07.09.13.13.17-.05-.04-.09-.1-.13-.17Z"/>
    <path class="cls-1" d="M434.81,682.32c.05.09.09.17.13.24-.04-.07-.09-.15-.13-.24Z"/>
    <path class="cls-1" d="M427.26,849.58c1.29-.73,2.56-1.48,3.83-2.23-1.27.76-2.54,1.51-3.83,2.24-13.94,7.93-27.93,15.75-41.91,23.61-.75.42-1.49.77-2.22,1.05.73-.28,1.47-.64,2.22-1.06,13.98-7.85,27.97-15.68,41.91-23.61Z"/>
    <path class="cls-1" d="M428.11,135.74c-.14.08-.27.17-.4.27-.27.19-.52.39-.77.61-.12.11-.25.22-.37.33s-.24.23-.36.35c-.35.34-.7.68-1.05,1.01-.24.21-.47.42-.71.61-1.15.9-2.37,1.37-3.99.46-.37-.21-.76-.49-1.18-.85-.97-.84-.98-4.16-.03-5.23,3.8-4.32,5.85,0,8.86,2.44Z"/>
    <path class="cls-1" d="M416.94,430.93c0,8.36.23,16.55-.23,24.71-.01.25-.13.53-.33.81-.14.19-.3.38-.48.56-.1.1-.2.19-.3.29h0c-1.06.93-2.68,1.77-3.8,1.86-5.99.44-12.04.17-18.39.17v-28.4h23.54Z"/>
    <rect class="cls-1" x="393.4" y="430.92" width="23.54" height=".01"/>
    <rect class="cls-1" x="394.07" y="396.62" width="22.68" height="27.73"/>
    <path class="cls-1" d="M402.48,185.98c6.11,9.25,3.91,19.48-3.2,26.41-.54.52-1.1,1.02-1.68,1.5-.59.48-1.2.94-1.84,1.38-.21.14-.43.28-.65.43-.22.14-.44.27-.66.41-.29.18-.59.35-.88.52-.4.22-.79.43-1.19.63-1.7.85-3.46,1.52-5.24,2.01-.89.24-1.78.44-2.67.6-.1.02-.2.04-.3.05-.59.1-1.19.18-1.78.24-4.18.42-8.37-.09-12.23-1.45-.66-.23-1.31-.49-1.95-.77-1.28-.56-2.51-1.23-3.68-1.98-.88-.57-1.73-1.19-2.54-1.86-.53-.45-1.05-.92-1.55-1.41-3.01-2.96-5.32-6.74-6.57-11.23-.06-.2-.1-.4-.15-.6-.18-.81-.29-1.64-.39-2.47-.08-.62-.15-1.25-.25-1.88-.44-4.81,2.3-10.48,6.78-14.89,1.16-1.14,2.43-2.2,3.79-3.14.27-.19.55-.37.83-.55.55-.35,1.13-.69,1.71-1,.29-.16.59-.31.88-.45.6-.29,1.2-.55,1.82-.79.92-.36,1.87-.66,2.83-.89.73-.18,1.46-.33,2.19-.46,9.57-1.68,18.4.81,24.73,6.98.4.39.79.8,1.18,1.22.38.42.76.86,1.11,1.32.36.45.71.91,1.05,1.39.17.24.34.48.5.73Z"/>
    <path class="cls-1" d="M404.74,316.24h-.01c-.5-6.04-.96-11.55-1.47-17.57h0c.51,6.02.97,11.53,1.47,17.57Z"/>
    <path class="cls-1" d="M400.93,183.86c.37.45.72.91,1.05,1.39-.34-.48-.69-.94-1.05-1.39Z"/>
    <path class="cls-1" d="M398.64,181.32c.4.39.8.79,1.18,1.22-.39-.42-.78-.83-1.18-1.22Z"/>
    <path class="cls-1" d="M392.28,298.67h-.01c-.35-5.64-1.18-10.8-.83-15.89.16-2.27-.18-4.22-.92-5.94.75,1.72,1.09,3.66.93,5.94-.35,5.09.48,10.25.83,15.89Z"/>
    <path class="cls-1" d="M388.37,273.54c.9,1.01,1.62,2.09,2.14,3.29-.52-1.19-1.24-2.28-2.14-3.29Z"/>
    <path class="cls-1" d="M386.68,123.59c.46.68.51,1.41.13,2.34.38-.92.33-1.65-.13-2.34Z"/>
    <path class="cls-1" d="M386.68,123.59c.46.69.51,1.42.13,2.34-.26.62-.7,1.34-1.34,2.19s-1.47,1.84-2.49,3.02c-3.42-4.13-3.36-7.52.16-10.18.49.28.93.53,1.33.78.27.17.51.33.74.48.33.24.62.47.87.69.08.08.16.15.23.23.15.15.27.3.37.45Z"/>
    <path class="cls-1" d="M386.08,122.91c.09.08.17.16.23.23-.07-.08-.15-.15-.23-.23Z"/>
    <path class="cls-1" d="M386.81,125.93c-.25.62-.7,1.34-1.34,2.19.64-.85,1.08-1.57,1.34-2.19Z"/>
    <path class="cls-1" d="M385.21,122.22c.34.24.63.46.87.69-.25-.22-.54-.45-.87-.69Z"/>
    <path class="cls-1" d="M384.47,121.74c.27.17.51.33.74.48-.23-.15-.47-.31-.74-.48Z"/>
    <path class="cls-1" d="M383.56,269.59c.27.17.54.34.8.53-.27-.18-.53-.36-.8-.53Z"/>
    <path class="cls-1" d="M382.32,268.91c.28.13.55.28.82.44-.28-.16-.55-.3-.82-.44Z"/>
    <path class="cls-1" d="M383.12,874.25c-.73.28-1.46.48-2.19.6.73-.12,1.46-.32,2.19-.6Z"/>
    <path class="cls-1" d="M381.05,268.39c.29.09.57.2.84.33-.28-.12-.56-.23-.84-.33Z"/>
    <path class="cls-1" d="M373.91,174.34c9.57-1.7,18.4.79,24.73,6.98-6.33-6.17-15.16-8.66-24.73-6.98Z"/>
    <path class="cls-1" d="M375.89,268.34c.22-.07.43-.13.64-.18-.21.05-.42.11-.64.18Z"/>
    <path class="cls-1" d="M373.92,873.34c.67.39,1.33.7,1.96.93-.64-.23-1.29-.54-1.96-.92-17.04-9.73-34.34-19.07-51.51-28.59-2.21-1.23-4.26-2.74-6.39-4.11h0c2.13,1.37,4.18,2.87,6.39,4.1,17.17,9.52,34.47,18.85,51.51,28.59Z"/>
    <path class="cls-1" d="M367.07,176.48c.6-.29,1.2-.55,1.82-.79-.62.24-1.22.5-1.82.79Z"/>
    <path class="cls-1" d="M364.48,177.93c.55-.36,1.13-.69,1.71-1-.58.31-1.16.65-1.71,1Z"/>
    <rect class="cls-1" x="342.05" y="396.52" width="22.51" height="28.18"/>
    <path class="cls-1" d="M364.51,431.21v28.12c-6.54,0-12.99.32-19.35-.23-.1-.01-.2-.03-.3-.06-.63-.18-1.34-.71-1.98-1.39-.96-1.02-1.74-2.39-1.8-3.37-.45-7.52-.2-15.09-.2-23.07h23.63Z"/>
    <path class="cls-1" d="M363.65,178.48c-1.36.94-2.63,2-3.79,3.14,1.15-1.15,2.42-2.21,3.79-3.14Z"/>
    <path class="cls-1" d="M342.88,457.65c.64.68,1.35,1.21,1.98,1.39-.63-.17-1.34-.7-1.98-1.39Z"/>
    <path class="cls-1" d="M334.71,454.02c.02,1.69-.53,2.96-1.45,3.82-.12.11-.24.21-.36.3-.25.19-.51.35-.8.49-.71.35-1.54.54-2.42.59-6.09.34-12.23.11-18.62.11v-28.34h23.62c0,7.97-.06,15.5.03,23.03Z"/>
    <rect class="cls-1" x="311.17" y="396.47" width="22.59" height="27.89"/>
    <path class="cls-1" d="M332.9,458.14c.12-.09.24-.19.36-.3-.11.11-.23.21-.36.3Z"/>
    <path class="cls-1" d="M332.1,458.63c.29-.14.55-.3.8-.49-.25.19-.51.35-.8.49Z"/>
    <path class="cls-1" d="M321.91,682.24H62.49v-24.19c.9-.04,1.81-.1,2.73-.16t.01,0c.92-.05,1.84-.09,2.77-.09,67.06.04,134.13.08,201.2.18,2.15,0,4.55.1,6.39.99h0c11.04,5.4,22.01,10.9,32.98,16.41,3.66,1.83,7.32,3.67,10.98,5.5.12.06.23.12.36.2.12.07.26.15.43.24.35.21.82.49,1.55.91h.01Z"/>
    <path class="cls-1" d="M319.92,681.08c.13.06.26.14.43.24-.17-.09-.31-.17-.43-.24Z"/>
    <path class="cls-1" d="M310.92,246.68c4.89-.19,9.18,3.92,9.06,8.22-.04,1.43-.43,2.75-1.09,3.88-.07.12-.14.23-.22.35-.22.32-.45.63-.71.92-.88.98-2.01,1.75-3.31,2.24-1.04.39-2.2.61-3.43.62h0c-.91.01-1.76-.07-2.56-.23-4.14-.83-6.65-3.82-6.7-8.12-.01-1.18.13-2.26.47-3.22.32-.91.82-1.71,1.53-2.37.09-.09.18-.17.28-.25.66-.56,1.49-1.01,2.5-1.35,1.15-.39,2.54-.62,4.19-.69Z"/>
    <path class="cls-1" d="M314.75,165.59c.14.41.21.79.2,1.13-.04,1.14-.81,2.41-1.91,3.48-.07.07-.15.15-.24.22-.16.15-.32.29-.49.43-1.33,1.04-2.95,1.77-4.36,1.75-1.84-.02-3.7-.9-5.04-2.18-1.18-1.15-1.95-2.59-1.94-4.01,0-.37.07-.76.19-1.16.13-.41.3-.82.52-1.23.17-.3.36-.61.57-.91.35-.5.76-.99,1.2-1.44,1.43-1.46,3.23-2.54,4.67-2.51.47.01,1.03.21,1.62.55.15.09.3.18.45.29.56.38,1.14.86,1.69,1.41.09.09.19.18.28.28.09.09.18.19.27.29.18.19.34.39.51.59.08.1.17.2.25.31.15.2.3.4.45.61.14.2.27.41.4.61.19.32.35.62.49.92.09.2.16.39.22.57Z"/>
    <path class="cls-1" d="M311.22,262.91c1.23,0,2.39-.23,3.43-.62-1.05.41-2.21.62-3.45.63h.01s0-.01,0-.01Z"/>
    <path class="cls-1" d="M309.74,159.71c.15.09.3.18.45.29-.15-.11-.3-.2-.45-.29Z"/>
    <path class="cls-1" d="M303.45,161.67c-.44.45-.85.94-1.2,1.44.35-.5.75-.99,1.2-1.44Z"/>
    <path class="cls-1" d="M301.95,254.56c.05,4.3,2.56,7.29,6.7,8.12-4.15-.82-6.67-3.81-6.71-8.11-.01-1.19.13-2.27.48-3.23-.34.96-.48,2.04-.47,3.22Z"/>
    <path class="cls-1" d="M302.25,163.11c-.21.3-.4.61-.57.91.16-.3.36-.61.57-.91Z"/>
    <path class="cls-1" d="M301.68,164.02c-.22.41-.39.82-.52,1.23.12-.41.3-.82.52-1.23Z"/>
    <path class="cls-1" d="M301.16,165.25c-.12.4-.19.79-.19,1.16,0,1.42.76,2.86,1.94,4.01-1.19-1.14-1.96-2.59-1.95-4.01,0-.37.07-.76.2-1.16Z"/>
    <path class="cls-1" d="M275.6,658.98c11.04,5.39,22.02,10.89,32.98,16.4-10.97-5.51-21.94-11.01-32.98-16.4Z"/>
    <path class="cls-1" d="M263.24,727.73c14.13-.06,28.27-.1,42.4-.12-14.13.02-28.26.06-42.4.12Z"/>
    <path class="cls-1" d="M272,283.17c1.37,2.03-.1,4.12-4.64,8.06-.95-1.03-1.75-1.91-2.4-2.69-.39-.46-.73-.89-1.02-1.29-.19-.26-.35-.51-.5-.75-.65-1.07-.81-1.91-.47-2.72.07-.19.17-.37.29-.55.13-.18.28-.36.45-.55.08-.09.18-.18.28-.28.79-.76,1.98-1.59,3.56-2.64,1.83,1.06,3.17,1.95,3.98,2.83.18.19.34.39.47.58Z"/>
    <path class="cls-1" d="M271.53,282.59c.19.19.34.39.47.58-.13-.19-.29-.39-.47-.58Z"/>
    <path class="cls-1" d="M275.59,658.97c-1.84-.89-4.24-.99-6.39-.99-67.07-.1-134.14-.14-201.2-.18-.93,0-1.85.04-2.77.09.91-.06,1.84-.1,2.76-.1,67.07.04,134.14.08,201.2.18,2.15,0,4.57.1,6.4,1Z"/>
    <path class="cls-1" d="M263.94,287.25c.29.4.63.83,1.02,1.29-.4-.46-.73-.89-1.02-1.29Z"/>
    <path class="cls-1" d="M263.99,282.4c-.1.1-.2.19-.28.28.09-.1.18-.19.28-.28Z"/>
    <path class="cls-1" d="M263.44,286.5c.15.24.31.49.5.75-.19-.26-.36-.51-.5-.75Z"/>
    <path class="cls-1" d="M263.71,282.68c-.17.19-.32.37-.45.55.13-.18.28-.37.45-.55Z"/>
    <path class="cls-1" d="M263.26,283.23c-.12.18-.22.36-.29.55.07-.19.17-.37.29-.55Z"/>
    <path class="cls-1" d="M246.77,192.91c5.96,3.79,5.99,4.54.38,9.69-5.62-5.4-5.62-5.48-.38-9.69Z"/>
    <path class="cls-1" d="M246.1,228.43c-7.21,2.84-14.12,5.48-19.23,10.41-.24.23-.48.47-.72.72-.24.24-.47.5-.7.76-.68.77-1.32,1.59-1.92,2.47-1.19,1.76-2.21,3.76-3.02,6.05-.79-2.12-1.71-4.05-2.77-5.79-.36-.58-.73-1.14-1.11-1.68-.2-.27-.39-.54-.6-.8-.6-.78-1.24-1.52-1.91-2.21-.22-.24-.45-.47-.68-.68-1.17-1.12-2.43-2.12-3.79-3.02-.54-.36-1.09-.7-1.67-1.02t-.01,0c-.57-.33-1.16-.64-1.77-.94h-.01c-.91-.44-1.85-.85-2.84-1.22-2.31-.88-4.82-1.58-7.53-2.13,2.61-1.35,5.2-2.62,7.66-3.96h.01c2.47-1.34,4.83-2.74,6.98-4.34,1.35-1,2.62-2.07,3.79-3.26,2.59-2.6,4.69-5.73,6.09-9.72,1.85,4.13,4.28,7.5,7.22,10.3,4.9,4.67,11.19,7.74,18.53,10.06Z"/>
    <path class="cls-1" d="M237.83,794.32c.75-.15,1.43-.31,2.06-.43-.63.13-1.31.28-2.06.43Z"/>
    <path class="cls-1" d="M236.88,794.49h0s-.01.01-.02.01h.01s.01-.01.01-.01Z"/>
    <path class="cls-1" d="M230.17,147.06c6.36,2.26,6.68,5.25,1.09,10.27-.83-.62-1.56-1.16-2.18-1.66-.47-.37-.87-.7-1.22-1.02-.34-.32-.63-.61-.86-.89-.08-.09-.15-.19-.21-.28-.54-.78-.61-1.48-.23-2.3,0-.01.01-.01.01-.01.2-.43.53-.89.98-1.42.28-.32.59-.66.95-1.03.24-.25.5-.51.78-.79s.58-.57.89-.87Z"/>
    <path class="cls-1" d="M231.06,638.85c.07.06.15.13.23.2H63.35v-227.57l1.23.75c2.88,1.77,5.61,3.45,8.34,5.13.55-.25,1.09-.48,1.64-.73,0,2.98,0,5.95,0,8.92-.01,4.46-.02,8.92,0,13.38,0,1.49,0,2.98,0,4.46.23,37.52.61,75.02.58,112.54,0,3.49.96,5.96,2.85,7.85,1.12,1.16,2.56,2.09,4.33,2.92,12.08,5.69,24.19,11.34,36.23,17.14,24.68,11.91,49.32,23.91,73.97,35.88h.01c12.51,6.08,25.01,12.17,37.51,18.26.05.02.09.05.14.07.08.06.15.12.24.19.17.15.36.35.64.61Z"/>
    <path class="cls-1" d="M234.41,748.22c-2.23.03-4.41.05-6.56.07,2.15-.03,4.34-.05,6.56-.07Z"/>
    <path class="cls-1" d="M229.28,147.93c-.28.28-.54.54-.78.79.24-.25.5-.52.78-.79Z"/>
    <path class="cls-1" d="M227.86,154.65c.35.32.75.65,1.22,1.02-.47-.36-.87-.7-1.22-1.02Z"/>
    <path class="cls-1" d="M228.5,148.72c-.36.37-.67.71-.95,1.03.27-.32.58-.66.95-1.03Z"/>
    <path class="cls-1" d="M227,153.76c.23.28.52.57.86.89-.35-.31-.63-.61-.86-.89Z"/>
    <path class="cls-1" d="M226.87,238.84c-.25.24-.49.48-.72.72.24-.25.48-.49.72-.72Z"/>
    <path class="cls-1" d="M227.55,149.75c-.45.53-.78.99-.98,1.42.2-.43.52-.9.98-1.42Z"/>
    <path class="cls-1" d="M226.56,151.18c-.38.82-.31,1.52.23,2.3-.55-.78-.62-1.48-.23-2.3Z"/>
    <path class="cls-1" d="M226.15,239.56c-.24.25-.47.5-.7.76.23-.26.46-.52.7-.76Z"/>
    <path class="cls-1" d="M225.45,240.32c-.68.77-1.32,1.59-1.92,2.47.6-.88,1.24-1.7,1.92-2.47Z"/>
    <path class="cls-1" d="M221.4,392.22c.3,70.7.5,141.39.73,212.1,0,.68-.13,1.36-.2,2.04-10.94-.8-13.73-3.7-13.76-12.79-.02-8.12-.03-16.25,0-24.38.29-71.23.59-142.48.89-213.71.03-8.34,3.28-13.52,10.38-16.38.38,7.16.84,14.21,1.09,21.26.05,1.33.1,2.65.14,3.98.14,3.99.29,7.97.42,11.95.04,1.33.08,2.66.11,3.98.07,2.66.13,5.31.16,7.97.02,1.33.03,2.65.04,3.98Z"/>
    <path class="cls-1" d="M223.5,748.33c-1.39.02-2.77.03-4.12.05,1.36-.02,2.73-.04,4.12-.05Z"/>
    <path class="cls-1" d="M221.2,380.27c.07,2.66.13,5.31.16,7.97-.03-2.66-.09-5.31-.16-7.97Z"/>
    <path class="cls-1" d="M220.35,208.07c1.86,4.12,4.29,7.5,7.22,10.3-2.94-2.8-5.37-6.17-7.22-10.3Z"/>
    <path class="cls-1" d="M220.67,364.34c.15,3.99.3,7.97.42,11.95-.13-3.98-.28-7.96-.42-11.95Z"/>
    <path class="cls-1" d="M217.28,748.4c-1.34.02-2.65.03-3.95.05,1.3-.02,2.61-.04,3.95-.05Z"/>
    <path class="cls-1" d="M211.32,748.47c-1.28.02-2.54.04-3.78.05,1.24-.02,2.5-.04,3.78-.05Z"/>
    <path class="cls-1" d="M207.5,748.52c-1.24.02-2.46.03-3.65.05,1.19-.02,2.41-.04,3.65-.05Z"/>
    <path class="cls-1" d="M203.8,748.57c-1.2.02-2.37.03-3.52.05,1.15-.02,2.33-.04,3.52-.05Z"/>
    <path class="cls-1" d="M200.23,748.62c-1.15.02-2.28.04-3.39.05,1.11-.02,2.24-.04,3.39-.05Z"/>
    <path class="cls-1" d="M196.8,748.67c-1.11.02-2.19.04-3.26.05,1.07-.02,2.15-.04,3.26-.05Z"/>
    <path class="cls-1" d="M191.91,748.75c-1.04.02-2.06.04-3.05.05,1-.02,2.01-.04,3.05-.05Z"/>
    <path class="cls-1" d="M187.34,748.83c-.97.02-1.91.04-2.83.05.92-.02,1.86-.04,2.83-.05Z"/>
    <path class="cls-1" d="M178.54,514.98c11.09,7.08,8.05,8.86,3.92,13.55-.18.21-.36.4-.53.58-.18.18-.35.35-.52.5-.45.41-.89.73-1.32.95-.1.06-.19.1-.28.14-.05.03-.11.05-.16.07-.1.04-.2.07-.3.1-.05.01-.11.03-.16.03-.13.03-.26.05-.38.06-.85.07-1.69-.24-2.62-.92-.51-.38-1.04-.85-1.61-1.44-5.54-5.7-5.17-6.97,3.96-13.62Z"/>
    <path class="cls-1" d="M181.41,529.61c.17-.15.34-.32.52-.5-.18.18-.35.34-.52.5Z"/>
    <path class="cls-1" d="M183.1,748.91c-1.8.04-3.49.08-5.08.11,1.59-.04,3.29-.08,5.08-.11Z"/>
    <path class="cls-1" d="M156.68,728.24c14.08-.05,28.16-.12,42.25-.19-14.08.08-28.17.14-42.25.19Z"/>
    <path class="cls-1" d="M173.41,177.2c5.7,2.88,7.8,4.79.32,11.26-6.91-5.74-6.94-6.85-.32-11.26Z"/>
    <path class="cls-1" d="M171.17,389.38c.27.17.54.33.82.49-1.89,1.6-3.49,2.99-5.13,4.33-.24.19-.48.37-.72.51-.24.15-.49.28-.73.38-.24.09-.48.17-.72.22-.51.1-1.01.1-1.48-.02-.75-.19-1.45-.68-2.02-1.48-.85-1.17-1.46-3.64-.78-4.41,1.25-1.42,3.61-2.87,5.38-2.75,1.02.08,2.02.57,3.03,1.2.77.48,1.54,1.03,2.35,1.53Z"/>
    <path class="cls-1" d="M172.65,274.16c-3.65,1.79-6.68,6.64-11,1.73-2.14-2.43-.24-4.38,1.47-5.56,5.08-3.52,6.31,2.42,9.53,3.83Z"/>
    <path class="cls-1" d="M166.14,394.71c.24-.14.48-.32.72-.51-.24.19-.48.37-.72.51Z"/>
    <path class="cls-1" d="M164.69,395.31c.24-.05.48-.13.72-.22-.24.1-.48.17-.72.22Z"/>
    <path class="cls-1" d="M175.68,749.08c-5.57.14-9.59.3-11.8.45,2.21-.16,6.23-.31,11.8-.45Z"/>
    <path class="cls-1" d="M163.21,395.29c.47.12.97.12,1.48.02-.51.11-1.01.1-1.48-.02Z"/>
    <path class="cls-1" d="M163.45,749.56c-.65.06-1.09.11-1.33.16.24-.06.69-.11,1.33-.16Z"/>
    <path class="cls-1" d="M162.11,749.72c-.08.03-.14.05-.16.07t-.02-.01s.09-.04.18-.06Z"/>
    <path class="cls-3" d="M161.93,749.78s.01,0,.02.01c-.01,0-.01-.01-.02-.01Z"/>
    <path class="cls-1" d="M161.89,335.98c.07,1.95-.75,3.78-2.12,5.21-.19.19-.39.38-.6.56s-.42.35-.65.51c-1.61,1.15-3.65,1.84-5.86,1.83-.67,0-1.31-.06-1.92-.16-.83-.14-1.6-.37-2.31-.69-1.13-.47-2.11-1.15-2.88-2-.17-.2-.34-.4-.49-.61t0-.01c-.31-.42-.57-.88-.79-1.37-.06-.12-.12-.25-.17-.38-.32-.88-.51-1.85-.51-2.89h.01c0-1.19.17-2.27.51-3.24.04-.13.09-.27.16-.4.16-.42.36-.81.59-1.18.28-.44.6-.84.96-1.2.28-.28.59-.54.92-.77.56-.4,1.18-.73,1.87-.98.66-.25,1.39-.42,2.17-.51.34-.04.7-.07,1.06-.08.94-.03,1.85.08,2.73.3.22.05.43.11.64.18,1.66.51,3.15,1.43,4.3,2.61.2.21.39.42.57.64.36.44.68.92.94,1.42.09.16.17.32.24.49.08.19.16.37.22.56.03.08.06.15.08.23.11.36.2.72.26,1.09.04.28.07.56.08.84Z"/>
    <path class="cls-1" d="M155.2,328.1c-.21-.07-.42-.13-.64-.18.22.05.43.11.64.18Z"/>
    <path class="cls-1" d="M144.93,445.73c6.56,10.69,10.29,108.6,5.3,126.84h0c-2.42-.52-4.34-.97-5.88-1.48-1.1-.37-2-.76-2.74-1.21-.45-.28-.83-.58-1.16-.91-1.89-1.88-2.14-4.83-2.14-10.49,0-22.54-.09-45.07.03-67.61.06-9.89-.02-19.83,1.05-29.65.56-5.1,3.48-9.95,5.54-15.49Z"/>
    <path class="cls-1" d="M145.06,340.63c.15.21.32.41.49.61-.17-.19-.34-.39-.49-.61Z"/>
    <path class="cls-1" d="M144.85,331.16c-.23.37-.43.76-.59,1.18.15-.42.36-.81.59-1.18Z"/>
    <path class="cls-1" d="M144.26,339.25c.22.49.48.95.79,1.37-.31-.42-.58-.88-.79-1.37Z"/>
    <path class="cls-1" d="M144.1,332.74c-.34.97-.51,2.05-.51,3.24h-.01c0-1.19.17-2.27.52-3.24Z"/>
    <path class="cls-1" d="M143.58,335.98c0,1.04.19,2.01.51,2.89-.33-.88-.52-1.85-.52-2.89h.01Z"/>
    <path class="cls-1" d="M135.35,227.53c5.68,5.39,5.63,6.45-.76,10.65-3.72-3.12-3.47-6.67.76-10.65Z"/>
    <path class="cls-1" d="M124.45,725.64c.98.53,2.04.99,3.15,1.37-1.12-.38-2.19-.84-3.17-1.37-1.56-.85-3.12-1.7-4.67-2.57,1.56.87,3.12,1.72,4.69,2.57Z"/>
    <path class="cls-1" d="M124.83,401.11c-.86.66-1.65,1.3-2.41,1.91-.5.41-.99.79-1.47,1.17h-.01c-.48.37-.96.72-1.45,1.06-.01-.01-.01,0-.01,0l-.75.48c-1.59.99-3.14.94-4.44.27h-.01c-.34-.18-.66-.41-.97-.66-.38-.33-.73-.71-1.04-1.14-1.19-1.68-3.84-3.4-1.36-5.99.11-.11.22-.23.35-.34,2.04-1.85,3.92-3.26,6.47-2h.01c.22.13.45.26.69.41,2.09,1.38,4.01,3.01,6.39,4.82h.01Z"/>
    <path class="cls-1" d="M117.74,395.88c.23.11.46.24.69.4-.24-.15-.47-.28-.69-.4Z"/>
    <path class="cls-1" d="M111.26,397.86c2.04-1.85,3.92-3.26,6.47-1.99-2.55-1.26-4.43.15-6.47,2-.13.11-.24.23-.35.34.1-.12.22-.23.35-.35Z"/>
    <path class="cls-1" d="M113.22,278.45c1.33,1.34,1.54,2.65.57,4.2-.14.21-.29.43-.47.65s-.38.45-.61.69c-.67.7-1.55,1.46-2.64,2.28-4.94-5.18-4.89-5.63.63-9.69,1.07.64,1.91,1.26,2.52,1.87Z"/>
    <path class="cls-1" d="M103.21,478.19c5.03-.04,9.96,4.31,9.94,8.77-.01,1.65-.76,3.22-2,4.5-.58.6-1.25,1.13-2.01,1.58-.25.15-.51.29-.78.42-.14.07-.27.13-.41.19-.55.24-1.13.44-1.73.6-.61.15-1.23.26-1.87.32-.32.03-.64.04-.97.04-5.5.03-8.51-2.91-8.46-8.24.04-5.12,3.1-8.13,8.29-8.18Z"/>
    <path class="cls-1" d="M109.14,493.04c.76-.45,1.43-.98,2.01-1.58-.57.6-1.25,1.13-2.01,1.58Z"/>
    <path class="cls-1" d="M108.36,493.46c.27-.13.53-.27.78-.42-.25.15-.51.29-.78.42Z"/>
    <path class="cls-1" d="M106.22,494.25c.6-.16,1.18-.36,1.73-.6-.55.25-1.13.45-1.73.6Z"/>
    <path class="cls-1" d="M104.35,494.57c.64-.06,1.26-.17,1.87-.32-.61.16-1.23.26-1.87.32Z"/>
    <path class="cls-1" d="M101.8,359.65c-7.68,8.07-6.24,6.46-12.85.78,5.21-6.87,6.3-6.94,12.85-.78Z"/>
    <path class="cls-1" d="M87.92,703.5c-.2.34-.39.68-.59,1.02h-.01c.19-.34.39-.68.58-1.02h.02Z"/>
    <path class="cls-1" d="M65.22,657.89c-.92.06-1.83.12-2.73.16v24.19h-.01v-24.2c.9-.04,1.81-.1,2.74-.15Z"/>
    <polygon class="cls-1" points="63.35 411.48 63.35 639.05 63.34 639.05 63.34 411.47 63.35 411.47 63.35 411.48"/>
  </g>
  <g>
    <path class="cls-2" d="M838.33,395.19c-2.74,0-4.98-.88-6.74-2.64s-2.64-4-2.64-6.74v-131.25h28.12v117.19c0,1.37.39,2.54,1.17,3.52.98.78,2.15,1.17,3.52,1.17,1.17,0,2.24-.39,3.22-1.17.98-.98,1.46-2.15,1.46-3.52v-117.19h28.12v117.19c0,1.37.39,2.54,1.17,3.52.98.78,2.15,1.17,3.52,1.17,1.17,0,2.24-.39,3.22-1.17.98-.98,1.46-2.15,1.46-3.52v-117.19h32.81v4.69h-4.69v131.25h4.69v4.69h-98.44Z"/>
    <path class="cls-2" d="M946.15,395.19v-140.62h28.12v51.56c0,1.37.39,2.54,1.17,3.52.98.78,2.15,1.17,3.52,1.17,1.17,0,2.24-.39,3.22-1.17.98-.98,1.46-2.15,1.46-3.52v-51.56h32.81v4.69h-4.69v131.25h4.69v4.69h-32.81v-51.56c0-1.17-.49-2.24-1.46-3.22-.98-.98-2.05-1.46-3.22-1.46-1.37,0-2.54.49-3.52,1.46-.78.98-1.17,2.05-1.17,3.22v51.56h-28.12Z"/>
    <path class="cls-2" d="M1035.21,395.19c-2.74,0-4.98-.88-6.74-2.64s-2.64-4-2.64-6.74v-121.88c0-2.54.88-4.69,2.64-6.45,1.76-1.95,4-2.93,6.74-2.93h46.88c2.54,0,4.69.98,6.45,2.93,1.95,1.76,2.93,3.91,2.93,6.45v121.88c0,2.74-.98,4.98-2.93,6.74-1.76,1.76-3.91,2.64-6.45,2.64h-46.88ZM1058.65,376.44c1.17,0,2.24-.39,3.22-1.17.98-.98,1.46-2.15,1.46-3.52v-93.75c0-1.17-.49-2.24-1.46-3.22-.98-.98-2.05-1.46-3.22-1.46-1.37,0-2.54.49-3.52,1.46-.78.98-1.17,2.05-1.17,3.22v93.75c0,1.37.39,2.54,1.17,3.52.98.78,2.15,1.17,3.52,1.17Z"/>
    <path class="cls-2" d="M1100.83,395.19v-4.69h4.69v-135.94h28.12v117.19c0,1.37.39,2.54,1.17,3.52.98.78,2.15,1.17,3.52,1.17,1.17,0,2.24-.39,3.22-1.17.98-.98,1.46-2.15,1.46-3.52v-107.81c0-2.54.88-4.69,2.64-6.45,1.76-1.95,4-2.93,6.74-2.93h18.75v131.25c0,2.74-.98,4.98-2.93,6.74-1.76,1.76-3.91,2.64-6.45,2.64h-60.94Z"/>
    <path class="cls-2" d="M1180.52,395.19v-140.62h32.81v4.69h-4.69v131.25h4.69v4.69h-32.81Z"/>
    <path class="cls-2" d="M1222.71,395.19v-4.69h4.69v-126.56c0-2.54.88-4.69,2.64-6.45,1.76-1.95,4-2.93,6.74-2.93h46.88c2.54,0,4.69.98,6.45,2.93,1.95,1.76,2.93,3.91,2.93,6.45v131.25h-28.12v-32.81c0-1.17-.49-2.24-1.46-3.22-.98-.98-2.05-1.46-3.22-1.46-1.37,0-2.54.49-3.52,1.46-.78.98-1.17,2.05-1.17,3.22v32.81h-32.81ZM1260.21,329.56c1.17,0,2.24-.39,3.22-1.17.97-.98,1.46-2.15,1.46-3.52v-56.25c0-1.17-.49-2.24-1.46-3.22-.98-.98-2.05-1.46-3.22-1.46-1.37,0-2.54.49-3.52,1.46-.78.98-1.17,2.05-1.17,3.22v56.25c0,1.37.39,2.54,1.17,3.52.97.78,2.15,1.17,3.52,1.17Z"/>
    <path class="cls-2" d="M1302.4,395.19v-4.69h4.69v-131.25h-4.69v-4.69h70.31v140.62h-28.12v-117.19c0-1.17-.49-2.24-1.46-3.22-.98-.98-2.05-1.46-3.22-1.46-1.37,0-2.54.49-3.52,1.46-.78.98-1.17,2.05-1.17,3.22v117.19h-32.81Z"/>
    <path class="cls-2" d="M1382.08,395.19v-4.69h4.69v-14.06h37.5v-65.62h18.75c2.54,0,4.69.98,6.45,2.93,1.95,1.76,2.93,3.91,2.93,6.45v65.62c0,2.74-.98,4.98-2.93,6.74-1.76,1.76-3.91,2.64-6.45,2.64h-60.94ZM1396.15,338.94c-2.74,0-4.98-.88-6.74-2.64s-2.64-4-2.64-6.74v-65.62c0-2.54.88-4.69,2.64-6.45,1.76-1.95,4-2.93,6.74-2.93h56.25v18.75h-37.5v65.62h-18.75Z"/>
    <path class="cls-2" d="M880.52,755.19v-4.69h4.69v-131.25h-4.69v-4.69h98.44c2.54,0,4.69.98,6.45,2.93,1.95,1.76,2.93,3.91,2.93,6.45v131.25h-28.12v-117.19c0-1.17-.49-2.24-1.46-3.22-.98-.97-2.05-1.46-3.22-1.46-1.37,0-2.54.49-3.52,1.46-.78.98-1.17,2.05-1.17,3.22v117.19h-28.12v-117.19c0-1.17-.49-2.24-1.46-3.22-.98-.97-2.05-1.46-3.22-1.46-1.37,0-2.54.49-3.52,1.46-.78.98-1.17,2.05-1.17,3.22v117.19h-32.81Z"/>
    <path class="cls-2" d="M1007.08,755.19c-2.74,0-4.98-.88-6.74-2.64s-2.64-4-2.64-6.74v-121.88c0-2.54.88-4.69,2.64-6.45,1.76-1.95,4-2.93,6.74-2.93h46.88c2.54,0,4.69.98,6.45,2.93,1.95,1.76,2.93,3.91,2.93,6.45v121.88c0,2.74-.98,4.98-2.93,6.74-1.76,1.76-3.91,2.64-6.45,2.64h-46.88ZM1030.52,736.44c1.17,0,2.24-.39,3.22-1.17.98-.97,1.46-2.15,1.46-3.52v-93.75c0-1.17-.49-2.24-1.46-3.22-.98-.97-2.05-1.46-3.22-1.46-1.37,0-2.54.49-3.52,1.46-.78.98-1.17,2.05-1.17,3.22v93.75c0,1.37.39,2.54,1.17,3.52.98.78,2.15,1.17,3.52,1.17Z"/>
    <path class="cls-2" d="M1082.08,755.19c-2.74,0-4.98-.88-6.74-2.64s-2.64-4-2.64-6.74v-131.25h28.12v117.19c0,1.37.39,2.54,1.17,3.52.98.78,2.15,1.17,3.52,1.17,1.17,0,2.24-.39,3.22-1.17.98-.97,1.46-2.15,1.46-3.52v-117.19h28.12v131.25c0,2.74-.98,4.98-2.93,6.74-1.76,1.76-3.91,2.64-6.45,2.64h-46.88Z"/>
    <path class="cls-2" d="M1161.77,755.19c-2.74,0-4.98-.88-6.74-2.64s-2.64-4-2.64-6.74v-126.56h-4.69v-4.69h32.81v121.88h9.38c2.54,0,4.69.98,6.45,2.93,1.95,1.76,2.93,3.91,2.93,6.45v9.38h-37.5Z"/>
    <path class="cls-2" d="M1208.65,755.19v-140.62h32.81v4.69h-4.69v131.25h4.69v4.69h-32.81Z"/>
    <path class="cls-2" d="M1250.83,755.19v-4.69h4.69v-131.25h-4.69v-4.69h70.31v140.62h-28.12v-117.19c0-1.17-.49-2.24-1.46-3.22-.98-.97-2.05-1.46-3.22-1.46-1.37,0-2.54.49-3.52,1.46-.78.98-1.17,2.05-1.17,3.22v117.19h-32.81Z"/>
    <path class="cls-2" d="M1330.52,755.19v-4.69h4.69v-14.06h37.5v-65.62h18.75c2.54,0,4.69.98,6.45,2.93,1.95,1.76,2.93,3.91,2.93,6.45v65.62c0,2.74-.98,4.98-2.93,6.74-1.76,1.76-3.91,2.64-6.45,2.64h-60.94ZM1344.58,698.94c-2.74,0-4.98-.88-6.74-2.64s-2.64-4-2.64-6.74v-65.62c0-2.54.88-4.69,2.64-6.45,1.76-1.95,4-2.93,6.74-2.93h56.25v18.75h-37.5v65.62h-18.75Z"/>
  </g>
</svg>