<?xml version="1.0" encoding="UTF-8"?>
<svg id="Calque_1" data-name="Calque 1" xmlns="http://www.w3.org/2000/svg" viewBox="0 0 623.44 963.19">
  <defs>
    <style>
      .cls-1 {
        fill: #FFFFFF;
      }

      .cls-1, .cls-2, .cls-3 {
        stroke-width: 0px;
      }

      .cls-2 {
        fill: #FFFFFF;
      }

    </style>
  </defs>
  <g>
    <path class="cls-1" d="M521.95,407.08c.01,3.37,0,6.75,0,10.41,0-3.66,0-7.03,0-10.41Z"/>
    <path class="cls-1" d="M521.95,407.08c0,3.37,0,6.75,0,10.41h-115.36c-.1-.18-.2-.35-.3-.52.1-.07.2-.12.3-.19.2-.13.4-.26.6-.4.5-.33,1-.65,1.53-.89,9.89-4.57,19.83-9.04,29.69-13.65,17.4-8.14,34.74-16.38,52.12-24.55,6.12-2.87,12.24-5.76,18.45-8.47,2.91-1.27,4.07-3.11,4.06-6-.05-22.42-.05-44.83.05-67.24.01-2.97.78-5.92,1-8.9.16-2.16,1.17-4.31.66-6.51-.05-.25-.13-.49-.23-.74-.05-.14-.11-.27-.18-.4-.14-.27-.31-.55-.5-.82-.65-.88-.42-2.57-.01-3.74.34-1.01,1.53-2.55,2.27-2.51,1.42.07,3.15.81,4.05,1.8.85.93,1.06,2.54,1.07,3.85.08,4.85.12,9.69.16,14.54.03,4.85.05,9.7.08,14.55.17,33.46.33,66.93.5,100.39Z"/>
    <path class="cls-1" d="M521.79,429.73v16.41c-59.41,0-118.67,0-177.94-.05-.04,0-.08-.03-.12-.07-.03-.03-.05-.07-.09-.11-.03-.05-.05-.1-.09-.16-.14-.26-.29-.63-.47-.93,7.22-3.21,14.36-6.38,21.5-9.55.18-.08.43-.03.58-.12,8.47-5.39,18.05-5.45,27.9-5.41,41.61.16,83.21.02,124.83-.01h3.9Z"/>
    <path class="cls-1" d="M514.75,280.16c-.05-.25-.13-.49-.23-.74.1.25.18.49.23.74Z"/>
    <path class="cls-1" d="M513.84,278.2c.2.27.37.55.5.82-.14-.27-.31-.55-.5-.82Z"/>
    <path class="cls-1" d="M106.99,459.6h397.61c-.63.61-1.04,1.1-1.4,1.45-.23.22-.43.39-.66.51-1.04.55-2.07,1.09-3.1,1.64-2.07,1.09-4.14,2.18-6.21,3.27-2.07,1.09-4.15,2.18-6.23,3.25-3.12,1.62-6.25,3.22-9.39,4.8-.26.13-.53.24-.82.33-1.26.39-2.76.44-4.11.44-20.4.01-40.8.01-61.19.01-51.95,0-103.89-.02-155.84.04h-.18c-9.64.01-19.28.04-28.92.08-14.61.06-29.24.14-43.86.21-9.61.05-19.21.09-28.81.12-4.89.02-9.77.03-14.66.04-1.69,0-3.51-.3-5.17-.84-.76-.25-1.48-.55-2.15-.89-1.07-.56-2.13-1.11-3.2-1.68-7.43-3.93-14.74-8.07-22.12-12.12.14-.22.27-.44.4-.67Z"/>
    <path class="cls-1" d="M504.63,197.01c-7.07,2.66-13.53,5.52-17.98,10.32-1.49,1.6-2.75,3.42-3.73,5.51-.29.6-.55,1.22-.78,1.87s-.44,1.31-.63,2.01c-5.82-9.33-13.97-16.02-26.11-19.44,11.05-4.57,20.93-8.98,24.99-20.31,4.56,10.43,12.36,16.81,24.24,20.04Z"/>
    <path class="cls-1" d="M496.27,237.08c3.44,1.99,4.8,3.92-1.03,7.28-1.91-3.63-1.56-6.06,1.03-7.28Z"/>
    <path class="cls-1" d="M493.64,309.12c.38.37.79.75,1.22,1.14-2.46,1.89-4.54,4.55-5.88,4.27-.83-.17-1.64-.72-2.38-1.44-.53-.52-1.01-1.12-1.43-1.74l-.25-.37c-.16-.25-.31-.5-.44-.74-.07-.12-.13-.24-.19-.36-.25-.47.09-1.25.68-2.04.14-.18.29-.37.45-.55.22-.24.45-.48.69-.7.12-.11.25-.22.37-.33,1-.83,2.05-1.37,2.56-1.08,1,.56,1.89,1.31,2.8,2.18l.35.33c.46.44.94.92,1.45,1.42Z"/>
    <path class="cls-1" d="M486.65,207.33c-1.48,1.6-2.74,3.42-3.73,5.51.98-2.1,2.24-3.91,3.73-5.51Z"/>
    <path class="cls-1" d="M482.91,212.84c-.28.6-.54,1.22-.78,1.87.23-.65.49-1.27.78-1.87Z"/>
    <path class="cls-1" d="M471.78,131.34c1.53,1.35.59,3.01-2.83,5.71-4.01-3.51-4.01-4.55-.16-7.22.77.27,1.42.54,1.95.82.42.22.77.45,1.04.69Z"/>
    <path class="cls-1" d="M470.24,367.46c.03,1.94-.4,3.34-1.49,4.36,1.09-1.03,1.51-2.43,1.49-4.36-.35-22-.42-44-.74-66,0-.37-.03-.74-.05-1.11.03.37.05.74.06,1.11.32,22,.4,44,.74,66Z"/>
    <path class="cls-1" d="M470.24,367.46c.03,1.93-.4,3.34-1.49,4.36-.63.6-1.49,1.06-2.61,1.42-1.38.44-2.65,1.2-4.26,1.95-.03-.44-.07-.88-.1-1.31-.03-.43-.05-.85-.05-1.27,0-2.09,0-4.19,0-6.28,0-9.19,0-18.37.06-27.55.01-1.61.03-3.22.04-4.83.01-1.4.03-2.8.04-4.21.03-2.8.08-5.61.12-8.41.1-5.61.23-11.22.42-16.82.05-1.4.1-2.81.16-4.21,0-.2.02-.39.03-.59.24-2.97,1.36-5.9,2-8.65,1.38-.34,2.29-.33,2.84.18.3.29.49.73.58,1.35.16,1.11.41,2.22.65,3.32s.48,2.21.64,3.32c.05.37.1.74.13,1.1.03.37.05.74.05,1.11.32,22.01.4,44,.74,66Z"/>
    <path class="cls-1" d="M469.31,299.24c.05.37.1.74.13,1.1-.03-.37-.08-.73-.13-1.1Z"/>
    <path class="cls-1" d="M468.03,292.6c.16,1.11.4,2.22.64,3.32-.24-1.1-.48-2.21-.65-3.32-.09-.62-.28-1.06-.58-1.35.31.28.5.72.59,1.35Z"/>
    <path class="cls-1" d="M461.17,158.33c4.04,2.62,4.11,4.35.27,6.56-3.27-2.34-3.89-3.32-1.96-5.15.08-.07.15-.14.23-.22.16-.14.33-.29.52-.44.28-.24.59-.48.94-.74Z"/>
    <path class="cls-1" d="M452.85,257.77c.29.2.6.37.92.49-.36.18-.7.44-1.01.74-.68.62-1.28,1.4-1.96,1.93-.07.05-.14.11-.22.16-.63.42-1.34.59-2.25.24-.33-.14-.7-.34-1.09-.63-.32-.24-.6-.5-.82-.79-.14-.2-.27-.39-.36-.6-.39-.87-.28-1.84.59-2.68.08-.08.16-.15.26-.23,1.97-1.61,3.27-.8,4.53.24.46.39.92.8,1.41,1.13Z"/>
    <path class="cls-1" d="M451.98,489.31c-1.64,1.01-3.27,2.05-4.91,3.06-.99.6-1.98,1.19-3,1.74-5.97,3.27-11.85,6.73-18.1,9.51-.38.17-.76.32-1.15.46-.2.07-.4.14-.61.2-.4.12-.81.24-1.23.35-.42.1-.85.2-1.28.27-.65.12-1.3.22-1.95.29-1.32.15-2.65.22-3.92.22-74.59.1-149.17.08-223.76.03-1.73,0-3.66-.31-5.16-1.03-6.52-3.15-13-6.39-19.57-9.67-2.03-1.01-4.08-2.04-6.14-3.06-1.24-.62-2.48-1.23-3.73-1.86.01-.01.05-.03.11-.05,0,0,0,0,0,0,.16-.03.46-.07.91-.1.1-.01.19-.02.29-.02,1.51-.1,4.25-.2,8.05-.29.52-.02,1.05-.03,1.6-.04,1.08-.02,2.24-.05,3.46-.07l.96-.02c.63,0,1.27-.02,1.93-.03.34-.01.69-.01,1.04-.02.68,0,1.37-.02,2.08-.03.37-.01.74-.01,1.11-.02.73,0,1.47-.02,2.22-.03h.03c.76,0,1.53-.02,2.31-.03h.03c.78-.01,1.58-.02,2.4-.03h.03c.81-.01,1.64-.02,2.49-.03h.03c.85,0,1.7-.02,2.58-.03.45,0,.91-.01,1.37-.01.89-.01,1.78-.02,2.69-.03.47,0,.95-.01,1.43-.01.92-.01,1.86-.02,2.81-.03.98-.01,1.96-.02,2.97-.03,1.47-.01,2.95-.03,4.47-.05,48.37-.44,122.47-.63,176.6-.46,2.3.01,4.56.02,6.78.03h.23c1.45,0,2.89.01,4.32.02.82,0,1.63,0,2.44.01,1.4,0,2.79.01,4.16.02,6.85.04,13.22.08,18.95.14.56,0,1.11.01,1.66.02.33,0,.67,0,1,0,.54,0,1.08.01,1.6.02h.1c.53,0,1.05.01,1.57.02.31,0,.61,0,.91,0,.51,0,1.02.01,1.51.02h.1c1.29.02,2.54.04,3.74.05h.06c.71.01,1.4.02,2.08.03h.08c.68.01,1.33.03,1.97.03h.06c.87.02,1.7.03,2.5.05.22,0,.44,0,.65.01,2.76.06,5.11.12,7,.18.16,0,.32.01.47.01.5.02.97.04,1.4.06.12,0,.25.01.36.01.19.01.38.02.55.03.12,0,.23.01.33.01.17.01.33.02.48.03h.03c.15.01.29.02.42.03.42.03.76.07.98.1Z"/>
    <path class="cls-1" d="M451.44,256.64c.46.38.93.79,1.41,1.13-.49-.33-.95-.74-1.41-1.13Z"/>
    <path class="cls-1" d="M451,489.21c-.13-.01-.27-.02-.42-.03.15.01.29.02.42.03Z"/>
    <path class="cls-1" d="M450.55,489.18c-.15-.01-.31-.02-.48-.03.16.01.33.02.48.03Z"/>
    <path class="cls-1" d="M449.74,489.13c-.18-.01-.36-.02-.55-.03.19.01.38.02.55.03Z"/>
    <path class="cls-1" d="M448.97,334.95h0c-1.06.84-1.93,1.58-2.61,2.23-.23.2-.43.4-.61.6h0c-.27.29-.5.55-.67.78,0,0,0,0,0,0-.12.15-.21.29-.28.42-.13.24-.18.44-.15.61h-3.31s.06-.09.09-.14c.64-1.08.16-2.69-.76-3.55-.18-.18-.39-.32-.61-.42h0c-.29-.13-.61-.19-.93-.14-.25.05-.49.11-.74.2-.12.05-.25.09-.38.14-.65.26-1.38.63-2.38,1.05.06-.09.12-.18.18-.26.44-.6.79-1.09,1.1-1.52.18-.24.34-.46.5-.67.15-.22.3-.42.45-.62.09.22.18.42.27.64,2.12-.58,4.24-1.17,6.74-1.86-.12-.16-.23-.31-.34-.46-.22-.29-.42-.56-.61-.81-.1-.13-.18-.25-.27-.37-.23-.3-.44-.58-.64-.86-.11-.15-.21-.29-.33-.44.08-.07.15-.12.23-.19.08-.06.15-.12.23-.18,1.95,1.93,3.89,3.86,5.84,5.79Z"/>
    <path class="cls-1" d="M448.82,489.09c-.43-.02-.89-.04-1.4-.06.5.02.97.04,1.4.06Z"/>
    <path class="cls-1" d="M443.93,331.19c.19.25.39.52.61.81-.22-.29-.42-.56-.61-.81Z"/>
    <path class="cls-1" d="M443.01,329.97c.2.27.42.56.64.86-.23-.3-.44-.58-.64-.86Z"/>
    <path class="cls-1" d="M443.14,329.15h0c-.08.07-.15.13-.23.19.08-.07.15-.13.23-.19Z"/>
    <path class="cls-1" d="M442.91,329.33c-.08.07-.15.12-.23.19h0c.08-.07.15-.13.23-.19Z"/>
    <path class="cls-1" d="M441.43,339.47s-.06.09-.09.14h0s.06-.09.1-.14Z"/>
    <path class="cls-1" d="M446.95,489.02c-1.88-.07-4.24-.12-7-.18,2.77.05,5.11.11,7,.18Z"/>
    <path class="cls-1" d="M439.67,210.58c3.71,3.63,3.64,4.39-.39,6.51-3.19-2.29-3.17-3.03.39-6.51Z"/>
    <path class="cls-1" d="M439.3,488.82c-.8-.01-1.63-.03-2.5-.05.86.01,1.69.03,2.5.05Z"/>
    <path class="cls-1" d="M436.92,334.97c.18-.24.34-.46.5-.67-.16.22-.32.43-.5.67Z"/>
    <path class="cls-1" d="M435.81,336.49c-.06.08-.12.17-.18.26h0c.07-.09.13-.18.19-.26Z"/>
    <path class="cls-1" d="M436.75,488.78c-.64,0-1.3-.02-1.97-.03.68,0,1.33.02,1.97.03Z"/>
    <path class="cls-1" d="M434.69,488.74c-.68-.01-1.37-.02-2.08-.03.71,0,1.4.02,2.08.03Z"/>
    <path class="cls-1" d="M432.55,488.71c-1.2-.01-2.45-.03-3.74-.05,1.3.01,2.54.03,3.74.05Z"/>
    <path class="cls-1" d="M428.71,488.66c-.5,0-1-.01-1.51-.02.51,0,1.02.01,1.51.02Z"/>
    <path class="cls-1" d="M426.28,488.63c-.52,0-1.04-.01-1.57-.02.53,0,1.05.01,1.57.02Z"/>
    <path class="cls-1" d="M424.61,488.61c-.53,0-1.06-.01-1.6-.02.54,0,1.08.01,1.6.02Z"/>
    <path class="cls-1" d="M423.17,386.45c.06,1.27-.02,2.42-.27,3.45-.06.23-.12.45-.2.67-.03.11-.08.22-.12.32-.08.22-.17.42-.27.61-.1.2-.21.39-.33.58-.12.18-.24.36-.38.54-.2.26-.43.51-.68.74-.04.05-.09.08-.13.12-.12.11-.26.22-.4.33-.46.36-.98.69-1.56.97t0,0c-.35.17-.72.33-1.12.48,0,0,0,0,0,0-.4.14-.83.27-1.27.4-.31.08-.62.19-.97.32-.11.04-.23.09-.35.14-.18.07-.38.15-.6.24-.36.14-.77.29-1.25.48,1.31-60.66-1.7-120.79,2.01-181.42.87.44,1.64.8,2.34,1.12.7.33,1.33.64,1.9.96.38.22.74.44,1.08.68.05.04.12.09.17.14.23.22.41.56.53.89.12.33.17.67.13.95,0,.08-.03.15-.05.22h0c-.23.55-.44,1.09-.62,1.63-.27.81-.48,1.62-.62,2.42-.33,1.88-.29,3.76.19,5.62.27,1.06.69,2.14,1.26,3.21.25.47.26,1.07.28,1.61.2,5.73.53,11.47.55,17.2.06,35.13.01,70.26.1,105.38,0,2.42.02,4.84.04,7.26.05,6.04.18,12.08.43,18.11.05,1.21.1,2.41.16,3.62Z"/>
    <path class="cls-1" d="M422.9,389.9c-.05.23-.12.45-.2.67.08-.22.14-.44.2-.67Z"/>
    <path class="cls-1" d="M422.57,364.72c.06,6.04.18,12.08.43,18.11-.25-6.04-.38-12.08-.43-18.11Z"/>
    <path class="cls-1" d="M421.58,114.09c.63.93.94,2.14.92,3.6,0,.23-.02.45-.05.67-.05.48-.15.93-.31,1.34-.04.11-.08.22-.13.33-.08.17-.16.33-.25.49-.1.16-.2.31-.31.46-.16.22-.35.41-.55.6-.08.07-.15.14-.23.2-.28.23-.59.43-.92.61,0,0,0,0,0,0-.35.18-.73.33-1.13.46-.2.06-.42.11-.63.16-.2.05-.42.08-.65.11-.08.01-.16.02-.23.03-.47.05-.98.08-1.51.07-3.79-.07-6.84-2.68-6.92-5.91,0-.42.04-.84.14-1.23.05-.18.1-.35.17-.53.05-.11.1-.23.16-.34.07-.14.14-.28.23-.41.15-.24.32-.47.52-.69.06-.07.13-.14.2-.21.22-.22.45-.42.71-.61.15-.12.31-.22.47-.33.09-.05.18-.1.28-.16.27-.16.57-.29.87-.42.11-.04.22-.08.33-.12.1-.03.21-.07.32-.1.33-.1.67-.18,1.02-.25.63-.12,1.31-.18,2.01-.17,2.09.03,3.69.56,4.77,1.53.27.25.5.52.71.82Z"/>
    <path class="cls-1" d="M422.59,390.88c-.08.21-.17.42-.27.61.1-.2.18-.4.27-.61Z"/>
    <path class="cls-1" d="M421.99,392.08c-.12.18-.24.37-.38.54.14-.18.26-.35.38-.54Z"/>
    <path class="cls-1" d="M421.32,219.23c.12.33.18.68.13.95.04-.27-.01-.61-.13-.95Z"/>
    <path class="cls-1" d="M422.02,488.59c-.55,0-1.1-.01-1.66-.02.56,0,1.11.01,1.66.02Z"/>
    <path class="cls-1" d="M420.62,218.18c.06.04.12.09.17.15-.05-.05-.12-.1-.17-.14-.34-.24-.7-.46-1.08-.68.38.22.74.43,1.08.67Z"/>
    <path class="cls-1" d="M417.1,123.16c.08-.01.16-.02.23-.03-.08.01-.15.02-.23.03Z"/>
    <path class="cls-1" d="M415.29,215.42c.87.43,1.64.8,2.34,1.13-.7-.33-1.47-.69-2.34-1.12h0Z"/>
    <path class="cls-1" d="M411.48,475.31c-51.95,0-103.89-.02-155.84.04,51.95-.06,103.89-.04,155.84-.04Z"/>
    <path class="cls-1" d="M408.48,154.43c1.18.91,1.98,2.19,1.95,3.42-.05,1.88-3.43,5.38-5.22,5.4-1.45.01-4.67-4.23-4.64-6.12.04-2.23,1.97-4.03,4.34-4.02.08,0,.17,0,.25,0,.17.01.34.03.5.06.26.04.5.1.76.18.58.18,1.13.45,1.64.78.14.1.28.2.42.3Z"/>
    <path class="cls-1" d="M408.06,154.13c.14.09.28.2.42.3-.14-.1-.27-.2-.42-.3Z"/>
    <path class="cls-1" d="M406.59,416.78c.2-.13.4-.27.6-.4-.2.14-.4.27-.6.4Z"/>
    <path class="cls-1" d="M406.42,153.34c.58.18,1.13.44,1.64.78-.51-.33-1.06-.61-1.64-.78Z"/>
    <path class="cls-1" d="M405.16,153.11c.17.01.34.03.5.06-.16-.03-.33-.05-.5-.06Z"/>
    <path class="cls-1" d="M399.45,519.08h0c-.22-.06-.43-.14-.65-.22.22.08.44.16.65.22Z"/>
    <path class="cls-1" d="M399.44,519.09c-.08.08-.16.16-.23.24-.15.16-.29.33-.44.5-.37.42-.74.83-1.22,1.08-8.91,4.66-17.86,9.28-26.84,13.83-.46.24-.98.43-1.52.57-.79.23-1.63.35-2.42.35-10.15.01-20.3.02-30.44.03-20.32,0-40.65,0-60.97.01-10.15,0-20.29.01-30.44.02-4.88,0-8.57-2.49-12.49-4.47-.12-.07-.25-.13-.38-.2-3.81-1.88-7.6-3.81-11.47-5.81-2.91-1.5-5.86-3.04-8.93-4.61-1.01-.53-2.04-1.06-3.08-1.59.11-.02.21-.04.32-.06l.33-.06c.51-.1.98-.2,1.4-.28.82-.17,1.51-.29,2.21-.29h0c61.32-.03,122.65-.03,183.98,0,.65,0,1.31.27,1.96.51h0c.22.08.43.16.65.23Z"/>
    <path class="cls-1" d="M401.41,488.43c-1.37,0-2.76-.01-4.16-.02,1.4,0,2.79.01,4.16.02Z"/>
    <path class="cls-1" d="M399.21,519.32c-.14.16-.29.33-.44.5.14-.16.29-.33.44-.5Z"/>
    <path class="cls-1" d="M396.83,518.34c.65,0,1.3.27,1.96.52-.65-.24-1.31-.51-1.96-.51-61.33-.03-122.66-.03-183.98,0,61.33-.03,122.65-.03,183.99,0Z"/>
    <path class="cls-1" d="M394.8,488.4c-1.43,0-2.86-.01-4.32-.02,1.46,0,2.9.01,4.32.02Z"/>
    <path class="cls-1" d="M391.58,398.37c.01,2.04-.14,3.75-.51,5.21.37-1.46.52-3.17.5-5.21-.12-19.11-.4-38.22-.43-57.33-.08-36.16-.02-72.31-.02-108.47v-3.36h0v3.36c0,36.16-.05,72.31.02,108.47.03,19.11.31,38.22.43,57.33Z"/>
    <path class="cls-1" d="M391.57,398.37c.01,2.04-.14,3.74-.5,5.21-.04.18-.09.35-.14.53-.36,1.17-.88,2.18-1.58,3.06,0,0,0,0,0,0-.21.25-.42.49-.65.73-.47.47-1.01.91-1.62,1.33-.31.2-.63.4-.97.6s-.7.39-1.08.57-.78.37-1.19.55c-.85.36-1.77.71-2.78,1.05-4.27,1.46-8.37,3.32-12.77,5.08h0v-177.16h-124.92v178.53c-5.2-2.4-9.89-4.54-14.55-6.71-.53-.25-1.06-.51-1.58-.78-.78-.4-1.55-.82-2.33-1.2h0c-.53-.26-1.05-.51-1.59-.73-.27-.11-.54-.22-.81-.32-.76-.27-1.31-.61-1.71-1.02-.89-.89-1.04-2.08-1.04-3.53.07-19.86.03-39.73.04-59.59.01-37.34.03-74.68.05-112.03v-3.18h10.71v-9.8h9.57c.28-4.38.54-8.44.81-12.74h47.19v-11.57h8.77c0-4.67-.18-9.09.06-13.49.03-.5.12-.95.25-1.38.06-.17.12-.34.19-.5.11-.24.24-.47.38-.69.24-.37.52-.7.83-1.01.06-.06.12-.12.19-.18.39-.37.83-.7,1.3-1.01.31-.2.64-.39.98-.57h0c.34-.18.69-.36,1.04-.53.18-.08.36-.16.55-.24.25-.11.49-.2.73-.28.15-.05.29-.08.44-.12,1.09-.26,2.11-.17,3.08.15.19.07.38.14.57.22.1.03.2.08.29.12.18.09.37.18.56.29.1.05.19.1.29.16.18.11.36.23.55.35.19.12.38.24.56.37.83.59,1.56,1.2,2.18,1.86.61.66,1.1,1.37,1.46,2.15,0,0,0,0,0,0,.5,1.12.74,2.4.63,3.88-.24,3.32.33,6.7.57,10.38h7.49c.35,3.93.66,7.53,1,11.48h47.42v12.62h9.12v9.94h11.54v3.36c0,36.16-.05,72.31.02,108.47.03,19.11.31,38.22.43,57.33Z"/>
    <path class="cls-1" d="M389.34,407.17c.7-.89,1.22-1.89,1.58-3.06-.35,1.17-.87,2.18-1.58,3.06Z"/>
    <path class="cls-1" d="M389.34,407.17c-.2.25-.42.5-.65.73.23-.24.44-.48.65-.73Z"/>
    <path class="cls-1" d="M387.07,409.22c.61-.42,1.15-.86,1.62-1.33-.46.48-1,.91-1.62,1.33Z"/>
    <path class="cls-1" d="M386.1,409.83c.34-.2.66-.4.97-.6-.3.21-.63.4-.97.6Z"/>
    <path class="cls-1" d="M390.26,488.38c-2.22,0-4.48-.01-6.78-.03,2.3,0,4.56.01,6.78.03Z"/>
    <path class="cls-1" d="M385.02,410.39c-.38.19-.78.37-1.19.55.42-.18.81-.37,1.19-.55Z"/>
    <path class="cls-1" d="M385.26,192.29c-2.35,1.36-3.58,4.66-6.85,1.69-.16-.14-.29-.27-.4-.41s-.2-.27-.27-.39c-.37-.69-.18-1.29.26-1.85,0,0,0,0,0,0,.12-.14.25-.27.38-.4.07-.07.14-.13.22-.2,2.83-2.44,4.35.29,6.65,1.57Z"/>
    <rect class="cls-1" x="379.58" y="219.27" width="0" height="9.94"/>
    <path class="cls-1" d="M376.66,133.14c3.62,4.42,3.55,4.85-1.01,6.83-1.94-1.64-1.61-3.91,1.01-6.83Z"/>
    <rect class="cls-1" x="370.47" y="206.65" width="0" height="12.62"/>
    <path class="cls-1" d="M363.76,163.05c-3.22-.49-9.17,2.9-9.97,5.4-2.33-1.76-4.6-3.48-7.22-5.47,2.88-2.08,5.65-4.06,8.66-6.22,2.74,2.02,5.44,4.01,8.53,6.29Z"/>
    <path class="cls-1" d="M361.52,113.15c.59.69.65,1.27.17,1.99l-.14.2c-.1.14-.23.27-.36.42-.55.58-1.38,1.26-2.47,2.13-3.74-2.86-3.74-2.95-.24-7.08,1.18.8,2.07,1.42,2.65,1.95.15.14.27.27.39.39Z"/>
    <path class="cls-1" d="M352.07,281.74c0,5.28.14,10.41-.05,15.55-.02.48-.1.91-.25,1.27-.1.24-.22.46-.35.65,0,0,0,0,0,0-.08.1-.15.19-.23.27-.08.09-.17.18-.26.24-.18.15-.38.27-.6.39h0c-.92.46-2.14.59-3.43.52-.16,0-.32-.02-.48-.03h0c-.32-.03-.64-.08-.95-.12-.8-.12-1.6-.27-2.41-.33-4.96-.4-7.43-2.89-7.43-7.45v-10.96h0s16.46,0,16.46,0Z"/>
    <rect class="cls-1" x="335.95" y="259" width="15.75" height="18.43"/>
    <path class="cls-1" d="M351.77,298.56c-.09.24-.21.46-.35.65.14-.2.26-.41.35-.65Z"/>
    <path class="cls-1" d="M351.19,299.49c.08-.08.16-.18.23-.27-.07.1-.15.2-.23.27Z"/>
    <path class="cls-1" d="M350.93,299.73c-.18.16-.38.29-.6.39.22-.12.42-.24.6-.39Z"/>
    <path class="cls-1" d="M348.38,548.48c.13.19.25.38.38.56-2.58,1.5-5.14,3.04-7.74,4.52-.87.49-1.73.98-2.61,1.46-9.51,5.18-19.05,10.29-28.58,15.42-.51.27-1.02.51-1.51.69h0c-.5.18-1,.31-1.49.39-1.11.17-2.24.07-3.44-.38-.43-.15-.88-.35-1.34-.61-11.62-6.36-23.42-12.46-35.13-18.67-1.51-.8-2.91-1.78-4.36-2.68.12-.23.25-.45.37-.69h0s85.46,0,85.46,0Z"/>
    <path class="cls-1" d="M346.89,300.64c1.29.07,2.51-.05,3.43-.52-.93.46-2.14.59-3.43.52-.16,0-.32-.02-.48-.04.16.01.32.03.48.03Z"/>
    <path class="cls-1" d="M345.45,300.48c.31.05.63.09.95.12-.32-.03-.63-.07-.95-.12Z"/>
    <path class="cls-1" d="M343.64,445.92s.06.08.09.11c-.03-.03-.06-.07-.09-.11Z"/>
    <path class="cls-1" d="M343.55,445.76c.03.06.06.11.09.16-.03-.05-.06-.1-.09-.16Z"/>
    <path class="cls-1" d="M338.41,555.01c.88-.48,1.75-.97,2.61-1.46-.87.5-1.73.99-2.61,1.46-9.51,5.18-19.05,10.29-28.58,15.42-.51.27-1.02.5-1.51.69.5-.18,1-.42,1.51-.69,9.53-5.13,19.07-10.24,28.58-15.42Z"/>
    <path class="cls-1" d="M338.99,88.75c-.1.05-.18.11-.27.18-.18.12-.35.25-.53.4-.08.07-.17.14-.25.22s-.16.15-.25.23c-.24.22-.48.44-.72.66-.16.14-.32.27-.48.4-.78.59-1.62.89-2.72.3-.25-.14-.52-.32-.8-.56-.66-.55-.67-2.72-.02-3.42,2.59-2.82,3.99,0,6.04,1.59Z"/>
    <path class="cls-1" d="M331.37,281.56c0,5.46.16,10.81-.16,16.14,0,.16-.09.35-.23.53-.1.12-.2.25-.33.37-.07.07-.14.12-.2.19h0c-.72.61-1.83,1.16-2.59,1.21-4.08.29-8.21.11-12.54.11v-18.55h16.05Z"/>
    <rect class="cls-1" x="315.31" y="281.55" width="16.05" height="0"/>
    <rect class="cls-1" x="315.77" y="259.15" width="15.47" height="18.11"/>
    <path class="cls-1" d="M321.51,121.56c4.17,6.04,2.67,12.72-2.18,17.25-.37.34-.75.67-1.15.98-.4.31-.82.61-1.25.9-.14.09-.29.18-.44.28-.15.09-.3.18-.45.27-.2.12-.4.23-.6.34-.27.14-.54.28-.81.41-1.16.56-2.36.99-3.57,1.31-.61.16-1.21.29-1.82.39-.07.01-.14.03-.2.03-.4.07-.81.12-1.21.16-2.85.27-5.71-.06-8.34-.95-.45-.15-.89-.32-1.33-.5-.87-.37-1.71-.8-2.51-1.29-.6-.37-1.18-.78-1.73-1.21-.36-.29-.72-.6-1.06-.92-2.05-1.93-3.63-4.4-4.48-7.34-.04-.13-.07-.26-.1-.39-.12-.53-.2-1.07-.27-1.61-.05-.4-.1-.82-.17-1.23-.3-3.14,1.57-6.85,4.62-9.73.79-.74,1.66-1.44,2.58-2.05.18-.12.38-.24.57-.36.38-.23.77-.45,1.17-.65.2-.1.4-.2.6-.29.41-.19.82-.36,1.24-.52.63-.24,1.28-.43,1.93-.58.5-.12,1-.22,1.49-.3,6.53-1.1,12.55.53,16.87,4.56.27.25.54.52.8.8.26.27.52.56.76.86.25.29.48.59.72.91.12.16.23.31.34.48Z"/>
    <path class="cls-1" d="M323.05,206.65h0c-.34-3.95-.65-7.54-1-11.48h0c.35,3.93.66,7.53,1,11.48Z"/>
    <path class="cls-1" d="M320.45,120.18c.25.29.49.59.72.91-.23-.31-.47-.61-.72-.91Z"/>
    <path class="cls-1" d="M318.89,118.52c.27.25.55.52.8.8-.27-.27-.53-.54-.8-.8Z"/>
    <path class="cls-1" d="M314.55,195.17h0c-.24-3.68-.8-7.05-.57-10.38.11-1.48-.12-2.76-.63-3.88.51,1.12.74,2.39.63,3.88-.24,3.32.33,6.7.57,10.38Z"/>
    <path class="cls-1" d="M311.88,178.76c.61.66,1.1,1.37,1.46,2.15-.35-.78-.85-1.49-1.46-2.15Z"/>
    <path class="cls-1" d="M310.73,80.81c.31.44.35.92.09,1.53.26-.6.23-1.08-.09-1.53Z"/>
    <path class="cls-1" d="M310.73,80.81c.31.45.35.93.09,1.53-.18.4-.48.88-.91,1.43s-1,1.2-1.7,1.97c-2.33-2.7-2.29-4.91.11-6.65.33.18.63.35.91.51.18.11.35.22.5.31.23.16.42.31.59.45.05.05.11.1.16.15.1.1.18.2.25.29Z"/>
    <path class="cls-1" d="M310.32,80.37c.06.05.12.1.16.15-.05-.05-.1-.1-.16-.15Z"/>
    <path class="cls-1" d="M310.82,82.34c-.17.4-.48.88-.91,1.43.44-.56.74-1.03.91-1.43Z"/>
    <path class="cls-1" d="M309.73,79.92c.23.16.43.3.59.45-.17-.14-.37-.29-.59-.45Z"/>
    <path class="cls-1" d="M309.22,79.6c.18.11.35.22.5.31-.16-.1-.32-.2-.5-.31Z"/>
    <path class="cls-1" d="M308.6,176.18c.18.11.37.22.55.35-.18-.12-.36-.24-.55-.35Z"/>
    <path class="cls-1" d="M307.76,175.73c.19.08.38.18.56.29-.19-.1-.38-.2-.56-.29Z"/>
    <path class="cls-1" d="M308.3,571.13c-.5.18-1,.31-1.49.39.5-.08,1-.21,1.49-.39Z"/>
    <path class="cls-1" d="M306.89,175.39c.2.06.39.13.57.22-.19-.08-.38-.15-.57-.22Z"/>
    <path class="cls-1" d="M302.02,113.96c6.53-1.11,12.55.52,16.87,4.56-4.32-4.03-10.34-5.66-16.87-4.56Z"/>
    <path class="cls-1" d="M303.37,175.36c.15-.05.29-.08.44-.12-.14.03-.29.07-.44.12Z"/>
    <path class="cls-1" d="M302.03,570.53c.46.25.91.46,1.34.61-.44-.15-.88-.35-1.34-.6-11.62-6.36-23.42-12.46-35.13-18.67-1.51-.8-2.91-1.79-4.36-2.68h0c1.45.89,2.85,1.87,4.36,2.68,11.71,6.22,23.51,12.31,35.13,18.67Z"/>
    <path class="cls-1" d="M297.36,115.36c.41-.19.82-.36,1.24-.52-.42.16-.83.33-1.24.52Z"/>
    <path class="cls-1" d="M295.59,116.31c.38-.24.77-.45,1.17-.65-.4.2-.79.42-1.17.65Z"/>
    <rect class="cls-1" x="280.3" y="259.09" width="15.35" height="18.41"/>
    <path class="cls-1" d="M295.61,281.74v18.37c-4.46,0-8.86.21-13.2-.15-.07,0-.14-.02-.2-.04-.43-.12-.91-.46-1.35-.91-.65-.67-1.19-1.56-1.23-2.2-.31-4.91-.14-9.86-.14-15.07h16.11Z"/>
    <path class="cls-1" d="M295.03,116.67c-.93.61-1.79,1.31-2.58,2.05.78-.75,1.65-1.44,2.58-2.05Z"/>
    <path class="cls-1" d="M280.86,299.01c.44.44.92.79,1.35.91-.43-.11-.91-.46-1.35-.91Z"/>
    <path class="cls-1" d="M275.29,296.64c.01,1.1-.36,1.93-.99,2.5-.08.07-.16.14-.25.2-.17.12-.35.23-.55.32-.48.23-1.05.35-1.65.39-4.15.22-8.34.07-12.7.07v-18.51h16.11c0,5.21-.04,10.12.02,15.04Z"/>
    <rect class="cls-1" x="259.24" y="259.05" width="15.41" height="18.22"/>
    <path class="cls-1" d="M274.06,299.33c.08-.06.16-.12.25-.2-.08.07-.16.14-.25.2Z"/>
    <path class="cls-1" d="M273.51,299.65c.2-.09.38-.2.55-.32-.17.12-.35.23-.55.32Z"/>
    <path class="cls-1" d="M266.56,445.71H89.65v-15.8c.61-.03,1.23-.07,1.86-.1t0,0c.63-.03,1.25-.06,1.89-.06,45.73.03,91.47.05,137.21.12,1.47,0,3.1.07,4.36.65h0c7.53,3.53,15.01,7.12,22.49,10.72,2.5,1.2,4.99,2.4,7.49,3.59.08.04.16.08.25.13.08.05.18.1.29.16.24.14.56.32,1.06.59h0Z"/>
    <path class="cls-1" d="M265.2,444.95c.09.04.18.09.29.16-.12-.06-.21-.11-.29-.16Z"/>
    <path class="cls-1" d="M259.07,161.21c3.33-.12,6.26,2.56,6.18,5.37-.03.93-.29,1.8-.74,2.53-.05.08-.1.15-.15.23-.15.21-.31.41-.48.6-.6.64-1.37,1.14-2.26,1.46-.71.25-1.5.4-2.34.4h0c-.62,0-1.2-.05-1.75-.15-2.82-.54-4.54-2.5-4.57-5.3,0-.77.09-1.48.32-2.1.22-.59.56-1.12,1.04-1.55.06-.06.12-.11.19-.16.45-.37,1.02-.66,1.7-.88.78-.25,1.73-.4,2.86-.45Z"/>
    <path class="cls-1" d="M261.68,108.25c.1.27.14.52.14.74-.03.74-.55,1.57-1.3,2.27-.05.05-.1.1-.16.14-.11.1-.22.19-.33.28-.91.68-2.01,1.16-2.97,1.14-1.25-.01-2.52-.59-3.44-1.42-.8-.75-1.33-1.69-1.32-2.62,0-.24.05-.5.13-.76.09-.27.2-.54.35-.8.12-.2.25-.4.39-.59.24-.33.52-.65.82-.94.98-.95,2.2-1.66,3.18-1.64.32,0,.7.14,1.1.36.1.06.2.12.31.19.38.25.78.56,1.15.92.06.06.13.12.19.18.06.06.12.12.18.19.12.12.23.25.35.39.05.07.12.13.17.2.1.13.2.26.31.4.1.13.18.27.27.4.13.21.24.4.33.6.06.13.11.25.15.37Z"/>
    <path class="cls-1" d="M259.27,171.81c.84,0,1.63-.15,2.34-.4-.72.27-1.51.4-2.35.41h0s0,0,0,0Z"/>
    <path class="cls-1" d="M258.26,104.41c.1.06.2.12.31.19-.1-.07-.2-.13-.31-.19Z"/>
    <path class="cls-1" d="M253.97,105.69c-.3.29-.58.61-.82.94.24-.33.51-.65.82-.94Z"/>
    <path class="cls-1" d="M252.95,166.36c.03,2.81,1.75,4.76,4.57,5.3-2.83-.54-4.55-2.49-4.58-5.3,0-.78.09-1.48.33-2.11-.23.63-.33,1.33-.32,2.1Z"/>
    <path class="cls-1" d="M253.15,106.63c-.14.2-.27.4-.39.59.11-.2.25-.4.39-.59Z"/>
    <path class="cls-1" d="M252.76,107.22c-.15.27-.27.54-.35.8.08-.27.2-.54.35-.8Z"/>
    <path class="cls-1" d="M252.41,108.02c-.08.26-.13.52-.13.76,0,.93.52,1.87,1.32,2.62-.81-.74-1.34-1.69-1.33-2.62,0-.24.05-.5.14-.76Z"/>
    <path class="cls-1" d="M234.98,430.52c7.53,3.52,15.02,7.11,22.49,10.71-7.48-3.6-14.96-7.19-22.49-10.71Z"/>
    <path class="cls-1" d="M226.55,475.42c9.64-.04,19.28-.07,28.92-.08-9.64.01-19.27.04-28.92.08Z"/>
    <path class="cls-1" d="M232.52,185.05c.93,1.33-.07,2.69-3.16,5.26-.65-.67-1.19-1.25-1.64-1.76-.27-.3-.5-.58-.7-.84-.13-.17-.24-.33-.34-.49-.44-.7-.55-1.25-.32-1.78.05-.12.12-.24.2-.36.09-.12.19-.24.31-.36.05-.06.12-.12.19-.18.54-.5,1.35-1.04,2.43-1.72,1.25.69,2.16,1.27,2.71,1.85.12.12.23.25.32.38Z"/>
    <path class="cls-1" d="M232.2,184.67c.13.12.23.25.32.38-.09-.12-.2-.25-.32-.38Z"/>
    <path class="cls-1" d="M234.97,430.51c-1.25-.58-2.89-.65-4.36-.65-45.74-.07-91.48-.09-137.21-.12-.63,0-1.26.03-1.89.06.62-.04,1.25-.07,1.88-.07,45.74.03,91.48.05,137.21.12,1.47,0,3.12.07,4.36.65Z"/>
    <path class="cls-1" d="M227.03,187.71c.2.26.43.54.7.84-.27-.3-.5-.58-.7-.84Z"/>
    <path class="cls-1" d="M227.06,184.54c-.07.07-.14.12-.19.18.06-.07.12-.12.19-.18Z"/>
    <path class="cls-1" d="M226.69,187.22c.1.16.21.32.34.49-.13-.17-.25-.33-.34-.49Z"/>
    <path class="cls-1" d="M226.87,184.73c-.12.12-.22.24-.31.36.09-.12.19-.24.31-.36Z"/>
    <path class="cls-1" d="M226.56,185.09c-.08.12-.15.24-.2.36.05-.12.12-.24.2-.36Z"/>
    <path class="cls-1" d="M215.32,126.09c4.06,2.48,4.08,2.97.26,6.33-3.83-3.53-3.83-3.58-.26-6.33Z"/>
    <path class="cls-1" d="M214.86,149.29c-4.92,1.86-9.63,3.58-13.11,6.8-.16.15-.33.31-.49.47-.16.16-.32.33-.48.5-.46.5-.9,1.04-1.31,1.61-.81,1.15-1.51,2.46-2.06,3.95-.54-1.38-1.17-2.65-1.89-3.78-.25-.38-.5-.74-.76-1.1-.14-.18-.27-.35-.41-.52-.41-.51-.85-.99-1.3-1.44-.15-.16-.31-.31-.46-.44-.8-.73-1.66-1.38-2.58-1.97-.37-.24-.74-.46-1.14-.67t0,0c-.39-.22-.79-.42-1.21-.61h0c-.62-.29-1.26-.56-1.94-.8-1.58-.57-3.29-1.03-5.14-1.39,1.78-.88,3.55-1.71,5.22-2.59h0c1.68-.88,3.29-1.79,4.76-2.83.92-.65,1.79-1.35,2.58-2.13,1.77-1.7,3.2-3.74,4.15-6.35,1.26,2.7,2.92,4.9,4.92,6.73,3.34,3.05,7.63,5.06,12.64,6.57Z"/>
    <path class="cls-1" d="M209.22,518.92c.51-.1.98-.2,1.4-.28-.43.08-.89.18-1.4.28Z"/>
    <path class="cls-1" d="M208.57,519.03h0s0,0-.01,0h0s0,0,0,0Z"/>
    <path class="cls-1" d="M204,96.14c4.34,1.48,4.56,3.43.74,6.71-.57-.4-1.06-.76-1.49-1.08-.32-.24-.59-.46-.83-.67-.23-.21-.43-.4-.59-.58-.05-.06-.1-.12-.14-.18-.37-.51-.42-.97-.16-1.5,0,0,0,0,0,0,.14-.28.36-.58.67-.93.19-.21.4-.43.65-.67.16-.16.34-.33.53-.52s.4-.37.61-.57Z"/>
    <path class="cls-1" d="M204.6,417.37s.1.08.16.13h-114.53v-148.64l.84.49c1.96,1.16,3.83,2.25,5.69,3.35.38-.16.74-.31,1.12-.48,0,1.95,0,3.89,0,5.83,0,2.91-.01,5.83,0,8.74,0,.97,0,1.95,0,2.91.16,24.51.42,49,.4,73.51,0,2.28.65,3.89,1.94,5.13.76.76,1.75,1.37,2.95,1.91,8.24,3.72,16.5,7.41,24.71,11.2,16.83,7.78,33.63,15.62,50.45,23.44h0c8.53,3.97,17.06,7.95,25.58,11.93.03.01.06.03.1.05.05.04.1.08.16.12.12.1.25.23.44.4Z"/>
    <path class="cls-1" d="M206.89,488.81c-1.52.02-3.01.03-4.47.05,1.47-.02,2.96-.03,4.47-.05Z"/>
    <path class="cls-1" d="M203.39,96.71c-.19.18-.37.35-.53.52.16-.16.34-.34.53-.52Z"/>
    <path class="cls-1" d="M202.42,101.1c.24.21.51.42.83.67-.32-.24-.59-.46-.83-.67Z"/>
    <path class="cls-1" d="M202.86,97.23c-.25.24-.46.46-.65.67.18-.21.4-.43.65-.67Z"/>
    <path class="cls-1" d="M201.84,100.52c.16.18.35.37.59.58-.24-.2-.43-.4-.59-.58Z"/>
    <path class="cls-1" d="M201.75,156.09c-.17.16-.33.31-.49.47.16-.16.33-.32.49-.47Z"/>
    <path class="cls-1" d="M202.21,97.9c-.31.35-.53.65-.67.93.14-.28.35-.59.67-.93Z"/>
    <path class="cls-1" d="M201.54,98.83c-.26.54-.21.99.16,1.5-.38-.51-.42-.97-.16-1.5Z"/>
    <path class="cls-1" d="M201.26,156.56c-.16.16-.32.33-.48.5.16-.17.31-.34.48-.5Z"/>
    <path class="cls-1" d="M200.78,157.06c-.46.5-.9,1.04-1.31,1.61.41-.57.85-1.11,1.31-1.61Z"/>
    <path class="cls-1" d="M198.02,256.28c.2,46.18.34,92.35.5,138.54,0,.44-.09.89-.14,1.33-7.46-.52-9.36-2.42-9.38-8.35-.01-5.3-.02-10.61,0-15.92.2-46.53.4-93.06.61-139.59.02-5.45,2.24-8.83,7.08-10.7.26,4.68.57,9.28.74,13.89.03.87.07,1.73.1,2.6.1,2.61.2,5.21.29,7.81.03.87.05,1.74.08,2.6.05,1.74.09,3.47.11,5.21.01.87.02,1.73.03,2.6Z"/>
    <path class="cls-1" d="M199.45,488.88c-.95.01-1.89.02-2.81.03.93-.01,1.86-.03,2.81-.03Z"/>
    <path class="cls-1" d="M197.88,248.47c.05,1.74.09,3.47.11,5.21-.02-1.74-.06-3.47-.11-5.21Z"/>
    <path class="cls-1" d="M197.3,135.99c1.27,2.69,2.93,4.9,4.92,6.73-2-1.83-3.66-4.03-4.92-6.73Z"/>
    <path class="cls-1" d="M197.52,238.07c.1,2.61.2,5.21.29,7.81-.09-2.6-.19-5.2-.29-7.81Z"/>
    <path class="cls-1" d="M195.21,488.93c-.91.01-1.81.02-2.69.03.89-.01,1.78-.03,2.69-.03Z"/>
    <path class="cls-1" d="M191.14,488.97c-.87.01-1.73.03-2.58.03.85-.01,1.7-.03,2.58-.03Z"/>
    <path class="cls-1" d="M188.54,489c-.85.01-1.68.02-2.49.03.81-.01,1.64-.03,2.49-.03Z"/>
    <path class="cls-1" d="M186.01,489.04c-.82.01-1.62.02-2.4.03.78-.01,1.59-.03,2.4-.03Z"/>
    <path class="cls-1" d="M183.58,489.07c-.78.01-1.55.03-2.31.03.76-.01,1.53-.03,2.31-.03Z"/>
    <path class="cls-1" d="M181.24,489.1c-.76.01-1.49.03-2.22.03.73-.01,1.47-.03,2.22-.03Z"/>
    <path class="cls-1" d="M177.91,489.15c-.71.01-1.4.03-2.08.03.68-.01,1.37-.03,2.08-.03Z"/>
    <path class="cls-1" d="M174.79,489.21c-.66.01-1.3.03-1.93.03.63-.01,1.27-.03,1.93-.03Z"/>
    <path class="cls-1" d="M168.79,336.46c7.56,4.62,5.49,5.79,2.67,8.85-.12.14-.25.26-.36.38-.12.12-.24.23-.35.33-.31.27-.61.48-.9.62-.07.04-.13.07-.19.09-.03.02-.08.03-.11.05-.07.03-.14.05-.2.07-.03,0-.08.02-.11.02-.09.02-.18.03-.26.04-.58.05-1.15-.16-1.79-.6-.35-.25-.71-.56-1.1-.94-3.78-3.72-3.53-4.55,2.7-8.9Z"/>
    <path class="cls-1" d="M170.74,346.02c.12-.1.23-.21.35-.33-.12.12-.24.22-.35.33Z"/>
    <path class="cls-1" d="M171.9,489.26c-1.23.03-2.38.05-3.46.07,1.08-.03,2.24-.05,3.46-.07Z"/>
    <path class="cls-1" d="M153.88,475.76c9.6-.03,19.2-.08,28.81-.12-9.6.05-19.21.09-28.81.12Z"/>
    <path class="cls-1" d="M165.29,115.83c3.89,1.88,5.32,3.13.22,7.35-4.71-3.75-4.73-4.47-.22-7.35Z"/>
    <path class="cls-1" d="M163.76,254.42c.18.11.37.22.56.32-1.29,1.05-2.38,1.95-3.5,2.83-.16.12-.33.24-.49.33-.16.1-.33.18-.5.25-.16.06-.33.11-.49.14-.35.07-.69.07-1.01-.01-.51-.12-.99-.44-1.38-.97-.58-.76-1-2.38-.53-2.88.85-.93,2.46-1.87,3.67-1.8.7.05,1.38.37,2.07.78.53.31,1.05.67,1.6,1Z"/>
    <path class="cls-1" d="M164.77,179.16c-2.49,1.17-4.56,4.34-7.5,1.13-1.46-1.59-.16-2.86,1-3.63,3.46-2.3,4.3,1.58,6.5,2.5Z"/>
    <path class="cls-1" d="M160.33,257.9c.16-.09.33-.21.49-.33-.16.12-.33.24-.49.33Z"/>
    <path class="cls-1" d="M159.34,258.29c.16-.03.33-.08.49-.14-.16.07-.33.11-.49.14Z"/>
    <path class="cls-1" d="M166.84,489.37c-3.8.09-6.54.2-8.05.29,1.51-.1,4.25-.2,8.05-.29Z"/>
    <path class="cls-1" d="M158.33,258.28c.32.08.66.08,1.01.01-.35.07-.69.07-1.01-.01Z"/>
    <path class="cls-1" d="M158.5,489.68c-.44.04-.74.07-.91.1.16-.04.47-.07.91-.1Z"/>
    <path class="cls-1" d="M157.58,489.79c-.05.02-.1.03-.11.05t-.01,0s.06-.03.12-.04Z"/>
    <path class="cls-3" d="M157.46,489.83s0,0,.01,0c0,0,0,0-.01,0Z"/>
    <path class="cls-1" d="M157.43,219.54c.05,1.27-.51,2.47-1.45,3.4-.13.12-.27.25-.41.37s-.29.23-.44.33c-1.1.75-2.49,1.2-4,1.2-.46,0-.89-.04-1.31-.1-.57-.09-1.09-.24-1.58-.45-.77-.31-1.44-.75-1.96-1.31-.12-.13-.23-.26-.33-.4t0,0c-.21-.27-.39-.57-.54-.89-.04-.08-.08-.16-.12-.25-.22-.57-.35-1.21-.35-1.89h0c0-.78.12-1.48.35-2.12.03-.08.06-.18.11-.26.11-.27.25-.53.4-.77.19-.29.41-.55.65-.78.19-.18.4-.35.63-.5.38-.26.8-.48,1.28-.64.45-.16.95-.27,1.48-.33.23-.03.48-.05.72-.05.64-.02,1.26.05,1.86.2.15.03.29.07.44.12,1.13.33,2.15.93,2.93,1.7.14.14.27.27.39.42.25.29.46.6.64.93.06.1.12.21.16.32.05.12.11.24.15.37.02.05.04.1.05.15.08.24.14.47.18.71.03.18.05.37.05.55Z"/>
    <path class="cls-1" d="M152.87,214.39c-.14-.05-.29-.08-.44-.12.15.03.29.07.44.12Z"/>
    <path class="cls-1" d="M145.87,291.23c4.47,6.98,7.02,70.94,3.61,82.85h0c-1.65-.34-2.96-.63-4.01-.97-.75-.24-1.36-.5-1.87-.79-.31-.18-.57-.38-.79-.59-1.29-1.23-1.46-3.15-1.46-6.85,0-14.72-.06-29.44.02-44.16.04-6.46-.01-12.95.72-19.37.38-3.33,2.37-6.5,3.78-10.12Z"/>
    <path class="cls-1" d="M145.96,222.58c.1.14.22.27.33.4-.12-.12-.23-.25-.33-.4Z"/>
    <path class="cls-1" d="M145.81,216.39c-.16.24-.29.5-.4.77.1-.27.25-.53.4-.77Z"/>
    <path class="cls-1" d="M145.41,221.68c.15.32.33.62.54.89-.21-.27-.4-.57-.54-.89Z"/>
    <path class="cls-1" d="M145.3,217.43c-.23.63-.35,1.34-.35,2.12h0c0-.78.12-1.48.35-2.12Z"/>
    <path class="cls-1" d="M144.95,219.54c0,.68.13,1.31.35,1.89-.23-.57-.35-1.21-.35-1.89h0Z"/>
    <path class="cls-1" d="M139.33,148.7c3.87,3.52,3.84,4.21-.52,6.96-2.54-2.04-2.37-4.36.52-6.96Z"/>
    <path class="cls-1" d="M131.9,474.06c.67.35,1.39.65,2.15.89-.76-.25-1.49-.55-2.16-.89-1.06-.56-2.13-1.11-3.18-1.68,1.06.57,2.13,1.12,3.2,1.68Z"/>
    <path class="cls-1" d="M132.16,262.08c-.59.43-1.13.85-1.64,1.25-.34.27-.68.52-1,.76h0c-.33.24-.65.47-.99.69,0,0,0,0,0,0l-.51.31c-1.08.65-2.14.61-3.03.18h0c-.23-.12-.45-.27-.66-.43-.26-.22-.5-.46-.71-.74-.81-1.1-2.62-2.22-.93-3.91.08-.07.15-.15.24-.22,1.39-1.21,2.67-2.13,4.41-1.31h0c.15.08.31.17.47.27,1.43.9,2.73,1.97,4.36,3.15h0Z"/>
    <path class="cls-1" d="M127.32,258.67c.16.07.31.16.47.26-.16-.1-.32-.18-.47-.26Z"/>
    <path class="cls-1" d="M122.9,259.96c1.39-1.21,2.67-2.13,4.41-1.3-1.74-.82-3.02.1-4.41,1.31-.09.07-.16.15-.24.22.07-.08.15-.15.24-.23Z"/>
    <path class="cls-1" d="M124.24,181.96c.91.88,1.05,1.73.39,2.74-.1.14-.2.28-.32.42s-.26.29-.42.45c-.46.46-1.06.95-1.8,1.49-3.37-3.38-3.33-3.68.43-6.33.73.42,1.3.82,1.72,1.22Z"/>
    <path class="cls-1" d="M117.41,312.43c3.43-.03,6.79,2.82,6.78,5.73,0,1.08-.52,2.1-1.36,2.94-.4.39-.85.74-1.37,1.03-.17.1-.35.19-.53.27-.1.05-.18.08-.28.12-.38.16-.77.29-1.18.39-.42.1-.84.17-1.28.21-.22.02-.44.03-.66.03-3.75.02-5.8-1.9-5.77-5.38.03-3.34,2.11-5.31,5.65-5.34Z"/>
    <path class="cls-1" d="M121.46,322.13c.52-.29.98-.64,1.37-1.03-.39.39-.85.74-1.37,1.03Z"/>
    <path class="cls-1" d="M120.93,322.4c.18-.08.36-.18.53-.27-.17.1-.35.19-.53.27Z"/>
    <path class="cls-1" d="M119.47,322.92c.41-.1.8-.24,1.18-.39-.38.16-.77.29-1.18.39Z"/>
    <path class="cls-1" d="M118.19,323.13c.44-.04.86-.11,1.28-.21-.42.1-.84.17-1.28.21Z"/>
    <path class="cls-1" d="M116.45,235c-5.24,5.27-4.26,4.22-8.76.51,3.55-4.49,4.3-4.53,8.76-.51Z"/>
    <path class="cls-1" d="M106.99,459.6c-.14.22-.27.44-.4.67h0c.13-.22.27-.44.4-.67h.01Z"/>
    <path class="cls-1" d="M91.51,429.81c-.63.04-1.25.08-1.86.1v15.8h0v-15.81c.61-.03,1.23-.07,1.87-.1Z"/>
    <polygon class="cls-1" points="90.23 268.86 90.23 417.5 90.22 417.5 90.22 268.85 90.23 268.85 90.23 268.86"/>
  </g>
  <g>
    <path class="cls-2" d="M9.38,763.19c-2.74,0-4.98-.88-6.74-2.64s-2.64-4-2.64-6.74v-131.25h28.12v117.19c0,1.37.39,2.54,1.17,3.52.98.78,2.15,1.17,3.52,1.17,1.17,0,2.24-.39,3.22-1.17.98-.98,1.46-2.15,1.46-3.52v-117.19h28.12v117.19c0,1.37.39,2.54,1.17,3.52.98.78,2.15,1.17,3.52,1.17,1.17,0,2.24-.39,3.22-1.17.98-.98,1.46-2.15,1.46-3.52v-117.19h32.81v4.69h-4.69v131.25h4.69v4.69H9.38Z"/>
    <path class="cls-2" d="M117.19,763.19v-140.62h28.12v51.56c0,1.37.39,2.54,1.17,3.52.98.78,2.15,1.17,3.52,1.17,1.17,0,2.24-.39,3.22-1.17.98-.98,1.46-2.15,1.46-3.52v-51.56h32.81v4.69h-4.69v131.25h4.69v4.69h-32.81v-51.56c0-1.17-.49-2.24-1.46-3.22-.98-.98-2.05-1.46-3.22-1.46-1.37,0-2.54.49-3.52,1.46-.78.98-1.17,2.05-1.17,3.22v51.56h-28.12Z"/>
    <path class="cls-2" d="M206.25,763.19c-2.74,0-4.98-.88-6.74-2.64s-2.64-4-2.64-6.74v-121.88c0-2.54.88-4.69,2.64-6.45,1.76-1.95,4-2.93,6.74-2.93h46.88c2.54,0,4.69.98,6.45,2.93,1.95,1.76,2.93,3.91,2.93,6.45v121.88c0,2.74-.98,4.98-2.93,6.74-1.76,1.76-3.91,2.64-6.45,2.64h-46.88ZM229.69,744.44c1.17,0,2.24-.39,3.22-1.17.98-.98,1.46-2.15,1.46-3.52v-93.75c0-1.17-.49-2.24-1.46-3.22-.98-.98-2.05-1.46-3.22-1.46-1.37,0-2.54.49-3.52,1.46-.78.98-1.17,2.05-1.17,3.22v93.75c0,1.37.39,2.54,1.17,3.52.98.78,2.15,1.17,3.52,1.17Z"/>
    <path class="cls-2" d="M271.88,763.19v-4.69h4.69v-135.94h28.12v117.19c0,1.37.39,2.54,1.17,3.52.98.78,2.15,1.17,3.52,1.17,1.17,0,2.24-.39,3.22-1.17.98-.98,1.46-2.15,1.46-3.52v-107.81c0-2.54.88-4.69,2.64-6.45,1.76-1.95,4-2.93,6.74-2.93h18.75v131.25c0,2.74-.98,4.98-2.93,6.74-1.76,1.76-3.91,2.64-6.45,2.64h-60.94Z"/>
    <path class="cls-2" d="M351.56,763.19v-140.62h32.81v4.69h-4.69v131.25h4.69v4.69h-32.81Z"/>
    <path class="cls-2" d="M393.75,763.19v-4.69h4.69v-126.56c0-2.54.88-4.69,2.64-6.45,1.76-1.95,4-2.93,6.74-2.93h46.88c2.54,0,4.69.98,6.45,2.93,1.95,1.76,2.93,3.91,2.93,6.45v131.25h-28.12v-32.81c0-1.17-.49-2.24-1.46-3.22-.98-.98-2.05-1.46-3.22-1.46-1.37,0-2.54.49-3.52,1.46-.78.98-1.17,2.05-1.17,3.22v32.81h-32.81ZM431.25,697.56c1.17,0,2.24-.39,3.22-1.17.97-.98,1.46-2.15,1.46-3.52v-56.25c0-1.17-.49-2.24-1.46-3.22-.98-.98-2.05-1.46-3.22-1.46-1.37,0-2.54.49-3.52,1.46-.78.98-1.17,2.05-1.17,3.22v56.25c0,1.37.39,2.54,1.17,3.52.97.78,2.15,1.17,3.52,1.17Z"/>
    <path class="cls-2" d="M473.44,763.19v-4.69h4.69v-131.25h-4.69v-4.69h70.31v140.62h-28.12v-117.19c0-1.17-.49-2.24-1.46-3.22-.98-.98-2.05-1.46-3.22-1.46-1.37,0-2.54.49-3.52,1.46-.78.98-1.17,2.05-1.17,3.22v117.19h-32.81Z"/>
    <path class="cls-2" d="M553.12,763.19v-4.69h4.69v-14.06h37.5v-65.62h18.75c2.54,0,4.69.98,6.45,2.93,1.95,1.76,2.93,3.91,2.93,6.45v65.62c0,2.74-.98,4.98-2.93,6.74-1.76,1.76-3.91,2.64-6.45,2.64h-60.94ZM567.19,706.94c-2.74,0-4.98-.88-6.74-2.64s-2.64-4-2.64-6.74v-65.62c0-2.54.88-4.69,2.64-6.45,1.76-1.95,4-2.93,6.74-2.93h56.25v18.75h-37.5v65.62h-18.75Z"/>
    <path class="cls-2" d="M51.56,963.19v-4.69h4.69v-131.25h-4.69v-4.69h98.44c2.54,0,4.69.98,6.45,2.93,1.95,1.76,2.93,3.91,2.93,6.45v131.25h-28.12v-117.19c0-1.17-.49-2.24-1.46-3.22-.98-.98-2.05-1.46-3.22-1.46-1.37,0-2.54.49-3.52,1.46-.78.98-1.17,2.05-1.17,3.22v117.19h-28.12v-117.19c0-1.17-.49-2.24-1.46-3.22-.98-.98-2.05-1.46-3.22-1.46-1.37,0-2.54.49-3.52,1.46-.78.98-1.17,2.05-1.17,3.22v117.19h-32.81Z"/>
    <path class="cls-2" d="M178.12,963.19c-2.74,0-4.98-.88-6.74-2.64s-2.64-4-2.64-6.74v-121.88c0-2.54.88-4.69,2.64-6.45,1.76-1.95,4-2.93,6.74-2.93h46.88c2.54,0,4.69.98,6.45,2.93,1.95,1.76,2.93,3.91,2.93,6.45v121.88c0,2.74-.98,4.98-2.93,6.74-1.76,1.76-3.91,2.64-6.45,2.64h-46.88ZM201.56,944.44c1.17,0,2.24-.39,3.22-1.17.98-.97,1.46-2.15,1.46-3.52v-93.75c0-1.17-.49-2.24-1.46-3.22-.98-.98-2.05-1.46-3.22-1.46-1.37,0-2.54.49-3.52,1.46-.78.98-1.17,2.05-1.17,3.22v93.75c0,1.37.39,2.54,1.17,3.52.98.78,2.15,1.17,3.52,1.17Z"/>
    <path class="cls-2" d="M253.12,963.19c-2.74,0-4.98-.88-6.74-2.64s-2.64-4-2.64-6.74v-131.25h28.12v117.19c0,1.37.39,2.54,1.17,3.52.98.78,2.15,1.17,3.52,1.17,1.17,0,2.24-.39,3.22-1.17.98-.97,1.46-2.15,1.46-3.52v-117.19h28.12v131.25c0,2.74-.98,4.98-2.93,6.74-1.76,1.76-3.91,2.64-6.45,2.64h-46.88Z"/>
    <path class="cls-2" d="M332.81,963.19c-2.74,0-4.98-.88-6.74-2.64s-2.64-4-2.64-6.74v-126.56h-4.69v-4.69h32.81v121.88h9.38c2.54,0,4.69.98,6.45,2.93,1.95,1.76,2.93,3.91,2.93,6.45v9.38h-37.5Z"/>
    <path class="cls-2" d="M379.69,963.19v-140.62h32.81v4.69h-4.69v131.25h4.69v4.69h-32.81Z"/>
    <path class="cls-2" d="M421.88,963.19v-4.69h4.69v-131.25h-4.69v-4.69h70.31v140.62h-28.12v-117.19c0-1.17-.49-2.24-1.46-3.22-.98-.98-2.05-1.46-3.22-1.46-1.37,0-2.54.49-3.52,1.46-.78.98-1.17,2.05-1.17,3.22v117.19h-32.81Z"/>
    <path class="cls-2" d="M501.56,963.19v-4.69h4.69v-14.06h37.5v-65.62h18.75c2.54,0,4.69.98,6.45,2.93,1.95,1.76,2.93,3.91,2.93,6.45v65.62c0,2.74-.98,4.98-2.93,6.74-1.76,1.76-3.91,2.64-6.45,2.64h-60.94ZM515.62,906.94c-2.74,0-4.98-.88-6.74-2.64s-2.64-4-2.64-6.74v-65.62c0-2.54.88-4.69,2.64-6.45,1.76-1.95,4-2.93,6.74-2.93h56.25v18.75h-37.5v65.62h-18.75Z"/>
  </g>
</svg>